<svg width="537" height="427" viewBox="0 0 537 427" fill="none" xmlns="http://www.w3.org/2000/svg">
<g clip-path="url(#clip0)">
<path opacity="0.1" d="M314.932 72.1609C280.953 70.9794 248.586 60.0098 217.684 48.0057C186.782 36.0017 156.174 22.7006 123.01 16.3415C101.678 12.2509 77.2813 11.6732 60.0977 23.1102C43.5547 34.1375 38.2101 53.1203 35.3383 70.7536C33.1753 84.0179 31.9048 97.9754 37.8321 110.394C41.9429 119.017 49.2458 126.263 54.2912 134.549C71.8632 163.284 59.4467 198.718 40.4047 226.775C31.4795 239.939 21.1106 252.505 14.2225 266.505C7.33437 280.504 4.14231 296.567 10.1694 310.861C16.1493 325.039 30.3928 335.667 45.8175 343.15C77.1553 358.352 114.069 362.7 150.089 365.163C229.802 370.619 309.934 368.256 389.856 365.893C419.435 365.016 449.14 364.128 478.236 359.555C494.395 357.013 511.075 352.986 522.809 343.25C537.698 330.894 541.389 309.968 531.414 294.478C514.671 268.49 468.413 262.036 456.695 234.142C450.258 218.793 456.873 201.695 466.229 187.454C486.305 156.914 519.953 130.118 521.727 95.2081C522.945 71.2262 506.765 47.2181 481.753 35.8704C455.54 23.9346 419.177 25.4469 399.847 45.1334C379.928 65.4184 344.931 73.2006 314.932 72.1609Z" fill="#00BFA6"/>
<path d="M228.615 362.59L48.9151 361.713L31.0595 319.825L94.1971 315.24L83.1929 269.314L208.071 253.125L88.4902 211.547L99.0534 209.037L291.338 240.412L280.748 312.085L265.612 351.473L228.615 362.59Z" fill="#00BFA6"/>
<path d="M51.6714 344.169C51.6714 344.169 62.6966 342.404 69.3117 350.197C69.3117 350.197 64.4606 354.02 54.0234 348.727L51.6714 344.169Z" fill="#00BFA6"/>
<path d="M50.5164 343.996C50.5164 343.996 43.4812 352.655 46.9463 362.296C46.9463 362.296 52.6794 360.001 53.3042 348.312L50.5164 343.996Z" fill="#00BFA6"/>
<path d="M44.1953 329.76C44.1953 329.76 48.6053 321.668 66.2456 332.994C66.2456 332.994 63.8936 338.435 56.1025 337.994C48.3113 337.552 46.2533 334.024 44.1953 329.76Z" fill="#00BFA6"/>
<path d="M43.056 329.177C43.056 329.177 33.9051 328.127 33.0178 349.079C33.0178 349.079 38.8192 350.281 42.9405 343.654C47.0618 337.027 45.3713 333.31 43.056 329.177Z" fill="#00BFA6"/>
<path d="M37.7271 312.463C37.7271 312.463 42.8722 298.201 61.5415 308.346C61.5415 308.346 57.2784 321.432 39.6381 317.315L37.7271 312.463Z" fill="#00BFA6"/>
<path d="M31.994 291.143C31.994 291.143 41.6962 276.734 58.8955 290.093C58.8955 290.093 52.8684 303.62 33.464 296.268L31.994 291.143Z" fill="#00BFA6"/>
<path d="M29.936 270.853C29.936 270.853 41.2552 257.615 58.2865 270.853C58.2865 270.853 47.5553 282.468 29.936 274.234V270.853Z" fill="#00BFA6"/>
<path d="M28.172 251.145C28.172 251.145 39.6382 237.324 55.9555 250.41C55.9555 250.41 43.0192 262.614 28.172 254.38V251.145Z" fill="#00BFA6"/>
<path d="M29.201 233.649C29.201 233.649 41.2762 215.858 56.5434 227.914C56.5434 227.914 43.6072 243.206 29.201 237.03V233.649Z" fill="#00BFA6"/>
<path d="M31.994 213.211C31.994 213.211 44.7832 195.567 59.6305 209.094C59.6305 209.094 44.4892 224.386 31.994 216.446V213.211Z" fill="#00BFA6"/>
<path d="M36.2571 194.943C36.2571 194.943 51.3983 178.36 64.6076 184.965C64.6076 184.965 48.8311 202.578 35.5956 199.343L36.2571 194.943Z" fill="#00BFA6"/>
<path d="M41.5492 177.624C41.5492 177.624 59.0215 157.313 69.1857 164.097C69.1857 164.097 56.3124 179.851 40.3102 181.426L41.5492 177.624Z" fill="#00BFA6"/>
<path d="M49.1881 157.539C49.1881 157.539 64.4816 140.956 75.6538 145.073C75.6538 145.073 62.5706 162.275 47.1353 162.716L49.1881 157.539Z" fill="#00BFA6"/>
<path d="M56.1024 138.75C56.1024 138.75 73.0077 122.871 80.3579 125.665C80.3579 125.665 68.1566 143.308 55.3674 142.279L56.1024 138.75Z" fill="#00BFA6"/>
<path d="M62.8646 121.401C62.8646 121.401 77.4178 102.428 85.3612 103.899C85.3612 103.899 76.5358 120.813 62.8646 123.328V121.401Z" fill="#00BFA6"/>
<path d="M70.2042 98.0069C70.2042 98.0069 83.0669 83.4665 90.018 83.498C90.018 83.498 79.8643 102.927 69.6739 102.749L70.2042 98.0069Z" fill="#00BFA6"/>
<path d="M74.5512 82.4321L86.9782 52.1436C86.9782 52.1436 87.5977 79.523 72.9709 88.0508L74.5512 82.4321Z" fill="#00BFA6"/>
<path d="M79.5966 49.0297C79.5966 49.0297 81.6546 23.7351 80.3316 21.6766C80.3316 21.6766 89.2147 42.7074 79.5126 60.2041L79.5966 49.0297Z" fill="#00BFA6"/>
<path d="M37.2441 312.127C37.2441 312.127 24.3604 304.14 16.018 323.679C16.018 323.679 27.4842 331.293 38.7614 317.11L37.2441 312.127Z" fill="#00BFA6"/>
<path d="M31.5793 290.329C31.5793 290.329 15.7765 283.119 8.11139 303.52C8.11139 303.52 20.3178 311.922 33.0178 295.486L31.5793 290.329Z" fill="#00BFA6"/>
<path d="M29.201 272.066C29.201 272.066 17.8818 258.828 0.850525 272.066C0.850525 272.066 11.5817 283.681 29.201 275.447V272.066Z" fill="#00BFA6"/>
<path d="M27.7835 251.145C27.7835 251.145 16.3173 237.324 0 250.41C0 250.41 12.9362 262.614 27.7835 254.38V251.145Z" fill="#00BFA6"/>
<path d="M29.201 234.153C29.201 234.153 21.1578 214.225 3.67505 222.794C3.67505 222.794 13.1252 240.464 28.487 237.461L29.201 234.153Z" fill="#00BFA6"/>
<path d="M33.0073 213.111C33.0073 213.111 25.0114 192.837 7.28186 202.236C7.28186 202.236 18.139 220.82 32.2198 216.241L33.0073 213.111Z" fill="#00BFA6"/>
<path d="M37.9634 195.042C37.9634 195.042 34.8133 172.814 20.1131 170.824C20.1131 170.824 23.2316 194.265 35.9841 199.049L37.9634 195.042Z" fill="#00BFA6"/>
<path d="M41.922 177.666C41.922 177.666 40.6934 150.886 28.5395 149.951C28.5395 149.951 28.949 170.278 40.5517 181.458L41.922 177.666Z" fill="#00BFA6"/>
<path d="M50.4481 156.788C50.4481 156.788 46.8255 134.518 35.2228 131.798C35.2228 131.798 36.6614 153.364 49.2983 162.254L50.4481 156.788Z" fill="#00BFA6"/>
<path d="M57.478 138.934C57.478 138.934 57.3572 115.735 50.2696 112.327C50.2696 112.327 45.8753 133.331 55.4252 141.896L57.478 138.934Z" fill="#00BFA6"/>
<path d="M63.4053 121.138C63.4053 121.138 62.4131 97.2507 55.0734 93.8848C55.0734 93.8848 52.5639 112.789 62.3081 122.703L63.4053 121.138Z" fill="#00BFA6"/>
<path d="M71.2279 99.913C71.2279 99.913 71.1859 80.4839 65.9464 75.9259C65.9464 75.9259 60.7383 97.2087 68.4926 103.82L71.2279 99.913Z" fill="#00BFA6"/>
<path d="M73.937 81.4764L68.8392 49.14C68.8392 49.14 61.9143 75.6371 74.1785 87.3156L73.937 81.4764Z" fill="#00BFA6"/>
<path d="M74.9293 49.3343C74.9293 49.3343 61.846 27.5946 62.1138 25.1791C62.1138 25.1791 63.5051 47.9637 79.9641 59.3114L74.9293 49.3343Z" fill="#00BFA6"/>
<path d="M76.4623 42.9122C76.4623 42.9122 64.114 12.0356 58.528 9.53604C58.528 9.53604 76.1682 18.505 77.4913 42.03L76.4623 42.9122Z" fill="#00BFA6"/>
<path d="M69.6109 102.932L68.7656 102.675C79.187 68.6847 81.7858 47.0133 76.0895 41.5784L76.6933 40.9377C82.7361 46.672 80.2843 68.107 69.6109 102.932Z" fill="#444053"/>
<path d="M40.9139 182.518L39.6644 182.072C40.7722 178.958 41.964 175.797 43.2135 172.683C54.0917 145.566 63.3528 120.34 69.2907 100.974L70.3774 100.449C64.4291 119.852 55.3307 146.044 44.442 173.198C43.1977 176.254 42.0112 179.399 40.9139 182.518Z" fill="#444053"/>
<path d="M67.2064 369.605C67.0384 369.421 50.1488 350.397 38.3729 317.918C31.4729 298.904 27.6328 278.915 26.996 258.696C26.1874 233.423 31.49 205.203 40.5727 179.567L41.5597 180.723C21.1684 238.259 29.2692 287.562 40.0162 317.252C51.6661 349.436 68.3666 368.25 68.5294 368.439L67.2064 369.605Z" fill="#444053"/>
<path d="M331.139 329.214C331.139 329.214 319.237 343.744 328.687 365.709L233.66 406.93L224.541 408.842L220.341 390.463L223.15 367.269V354.592L331.139 329.214Z" fill="#D5D6DB"/>
<path d="M31.0595 319.825L162.585 295.843L336.861 323.611L228.615 362.59L31.0595 319.825Z" fill="#00BFA6"/>
<path d="M31.0595 319.825L162.585 295.843L336.861 323.611L228.615 362.59L31.0595 319.825Z" fill="#00BFA6"/>
<path d="M31.0595 319.819C31.0595 319.819 18.7586 343.129 32.9338 364.659L227.975 406.93C227.975 406.93 215.868 388.362 228.599 362.59L31.0595 319.819Z" fill="#00BFA6"/>
<path opacity="0.1" d="M31.0595 319.819C31.0595 319.819 18.7586 343.129 32.9338 364.659L227.975 406.93C227.975 406.93 215.868 388.362 228.599 362.59L31.0595 319.819Z" fill="black"/>
<path opacity="0.1" d="M36.8714 327.901C36.8714 327.901 29.8415 344.957 36.8714 355.994V327.901Z" fill="black"/>
<path d="M227.975 406.93L336.861 360.458C336.861 360.458 342.952 361.771 339.014 366.234C335.076 370.698 230.075 411.394 230.075 411.394L32.9338 364.659L227.975 406.93Z" fill="#00BFA6"/>
<path opacity="0.1" d="M227.975 406.93L336.861 360.458C336.861 360.458 342.952 361.771 339.014 366.234C335.076 370.698 230.075 411.394 230.075 411.394L32.9338 364.659L227.975 406.93Z" fill="black"/>
<path opacity="0.1" d="M219.049 367.284C219.049 367.284 208.549 379.887 219.049 398.791V367.284Z" fill="black"/>
<path opacity="0.1" d="M269.885 367.071L222.786 382.787L222.953 383.286L270.051 367.569L269.885 367.071Z" fill="black"/>
<path opacity="0.1" d="M279.318 365.507L222.772 387.014L222.958 387.505L279.505 365.998L279.318 365.507Z" fill="black"/>
<path opacity="0.1" d="M287.982 365.432L223.087 391.999L223.286 392.485L288.18 365.918L287.982 365.432Z" fill="black"/>
<path opacity="0.1" d="M297.403 363.157L223.845 396.392L224.061 396.87L297.619 363.635L297.403 363.157Z" fill="black"/>
<path opacity="0.1" d="M305.317 363.168L224.427 398.532L224.637 399.013L305.528 363.649L305.317 363.168Z" fill="black"/>
<path opacity="0.1" d="M322.63 360.227L225.647 402.123L225.855 402.605L322.838 360.709L322.63 360.227Z" fill="black"/>
<path opacity="0.3" d="M79.9221 322.387L172.324 302.958L228.615 313.723L152.898 338.141L79.9221 322.387Z" fill="white"/>
<path d="M336.861 323.611C336.861 323.611 341.639 325.538 338.835 328.515C336.032 331.493 228.599 362.59 228.599 362.59L336.861 323.611Z" fill="#00BFA6"/>
<path d="M383.267 278.708C383.267 278.708 371.37 293.233 380.82 315.204L285.794 356.425L276.674 358.347L272.474 339.968L275.325 316.779V304.087L383.267 278.708Z" fill="#D5D6DB"/>
<path d="M83.1929 269.314L214.713 245.338L388.995 273.105L280.748 312.085L83.1929 269.314Z" fill="#3A3768"/>
<path d="M83.1719 269.314C83.1719 269.314 70.8657 292.624 85.0409 314.153L280.082 356.425C280.082 356.425 267.98 337.841 280.727 312.079L83.1719 269.314Z" fill="#3A3768"/>
<path opacity="0.1" d="M83.1719 269.314C83.1719 269.314 70.8657 292.624 85.0409 314.153L280.082 356.425C280.082 356.425 267.98 337.841 280.727 312.079L219.049 298.726L83.1719 269.314Z" fill="black"/>
<path opacity="0.1" d="M88.9995 277.396C88.9995 277.396 81.9749 294.446 88.9995 305.489V277.396Z" fill="black"/>
<path d="M280.103 356.425L388.995 309.953C388.995 309.953 395.08 311.265 391.142 315.729C387.204 320.192 282.203 360.888 282.203 360.888L85.0619 314.153L280.103 356.425Z" fill="#3A3768"/>
<path opacity="0.1" d="M280.103 356.425L388.995 309.953C388.995 309.953 395.08 311.265 391.142 315.729C387.204 320.192 282.203 360.888 282.203 360.888L85.0619 314.153L280.103 356.425Z" fill="black"/>
<path opacity="0.1" d="M271.177 316.779C271.177 316.779 260.677 329.382 271.177 348.286V316.779Z" fill="black"/>
<path opacity="0.1" d="M322.017 316.571L274.919 332.288L275.085 332.786L322.183 317.07L322.017 316.571Z" fill="black"/>
<path opacity="0.1" d="M331.457 315.005L274.91 336.512L275.097 337.003L331.643 315.496L331.457 315.005Z" fill="black"/>
<path opacity="0.1" d="M340.113 314.922L275.218 341.49L275.417 341.976L340.312 315.408L340.113 314.922Z" fill="black"/>
<path opacity="0.1" d="M349.54 312.648L275.982 345.883L276.198 346.362L349.756 313.127L349.54 312.648Z" fill="black"/>
<path opacity="0.1" d="M357.447 312.653L276.557 348.017L276.767 348.498L357.657 313.134L357.447 312.653Z" fill="black"/>
<path opacity="0.1" d="M374.763 309.712L277.78 351.608L277.989 352.09L374.972 310.194L374.763 309.712Z" fill="black"/>
<path opacity="0.45" d="M132.055 271.882L224.457 252.453L280.748 263.218L205.032 287.635L132.055 271.882Z" fill="white"/>
<path d="M388.995 273.105C388.995 273.105 393.767 275.033 390.969 278.005C388.17 280.977 280.748 312.079 280.748 312.079L388.995 273.105Z" fill="#3A3768"/>
<path d="M388.202 220.93C388.202 220.93 376.3 247.013 385.75 268.978L290.724 298.647L281.625 300.574L277.425 282.195L280.234 259.001V246.309L388.202 220.93Z" fill="#D5D6DB"/>
<path d="M88.1437 211.541L219.669 187.559L393.951 215.327L285.699 254.306L88.1437 211.541Z" fill="#00BFA6"/>
<path d="M88.1437 211.536C88.1437 211.536 75.8218 234.846 89.997 256.375L285.038 298.647C285.038 298.647 272.931 280.063 285.678 254.306L88.1437 211.536Z" fill="#00BFA6"/>
<path opacity="0.1" d="M88.1437 211.536C88.1437 211.536 75.8218 234.846 89.997 256.375L285.038 298.647C285.038 298.647 272.931 280.063 285.678 254.306L88.1437 211.536Z" fill="black"/>
<path opacity="0.1" d="M93.9556 219.618C93.9556 219.618 86.9257 236.673 93.9556 247.711V219.618Z" fill="black"/>
<path d="M285.059 298.647L393.946 263.727C393.946 263.727 400.036 265.04 396.098 269.503C392.161 273.967 287.159 303.11 287.159 303.11L90.018 256.375L285.059 298.647Z" fill="#00BFA6"/>
<path opacity="0.1" d="M285.059 298.647L393.946 263.727C393.946 263.727 400.036 265.04 396.098 269.503C392.161 273.967 287.159 303.11 287.159 303.11L90.018 256.375L285.059 298.647Z" fill="black"/>
<path opacity="0.1" d="M276.134 259.001C276.134 259.001 265.633 271.604 276.134 290.508V259.001Z" fill="black"/>
<path opacity="0.1" d="M326.974 258.792L279.876 274.509L280.042 275.007L327.14 259.291L326.974 258.792Z" fill="black"/>
<path opacity="0.1" d="M336.411 257.229L279.864 278.735L280.051 279.226L336.597 257.719L336.411 257.229Z" fill="black"/>
<path opacity="0.1" d="M345.062 257.149L280.167 283.716L280.366 284.202L345.261 257.635L345.062 257.149Z" fill="black"/>
<path opacity="0.1" d="M354.496 254.87L280.938 288.105L281.154 288.583L354.712 255.348L354.496 254.87Z" fill="black"/>
<path opacity="0.1" d="M362.406 254.879L281.516 290.243L281.726 290.724L362.617 255.36L362.406 254.879Z" fill="black"/>
<path opacity="0.1" d="M379.721 251.942L282.738 293.838L282.946 294.32L379.929 252.424L379.721 251.942Z" fill="black"/>
<path opacity="0.3" d="M137.006 214.104L229.408 194.675L285.699 205.44L209.982 229.857L137.006 214.104Z" fill="white"/>
<path d="M393.945 215.327C393.945 215.327 398.723 217.255 395.92 220.232C393.116 223.209 285.699 254.306 285.699 254.306L393.945 215.327Z" fill="#00BFA6"/>
<path d="M162.973 55.9244C162.973 55.9244 143.023 54.7219 145.354 68.7214C145.354 68.7214 144.887 71.1947 147.128 72.3184C147.128 72.3184 147.165 71.2682 149.176 71.6305C149.894 71.7538 150.623 71.7891 151.35 71.7355C152.328 71.6685 153.259 71.2852 154.001 70.6433C154.001 70.6433 159.613 68.3223 161.797 59.1433C161.797 59.1433 163.414 57.1427 163.372 56.6281L159.991 58.0669C159.991 58.0669 161.141 60.4981 160.238 62.5198C160.238 62.5198 160.128 58.1561 159.477 58.2559C159.345 58.2559 157.728 59.1013 157.728 59.1013C157.728 59.1013 159.708 63.339 158.211 66.4161C158.211 66.4161 158.778 61.1965 157.109 59.4059L154.736 60.7922C154.736 60.7922 157.051 65.1664 155.481 68.7371C155.481 68.7371 155.886 63.2602 154.237 61.1283L152.085 62.8086C152.085 62.8086 154.263 67.1198 152.935 70.0814C152.935 70.0814 152.762 63.7066 151.623 63.2235C151.623 63.2235 149.738 64.8828 149.454 65.5655C149.454 65.5655 150.945 68.7161 150.016 70.3492C150.016 70.3492 149.454 66.1011 148.966 66.0801C148.966 66.0801 147.092 68.8947 146.897 70.8061C146.988 69.0241 147.544 67.297 148.509 65.7965C147.429 66.0009 146.432 66.5176 145.643 67.2826C145.643 67.2826 145.931 65.2924 148.976 65.1191C148.976 65.1191 150.525 62.9819 150.94 62.8559C150.94 62.8559 147.911 62.5986 146.078 63.4125C146.078 63.4125 147.695 61.5378 151.491 62.3623L153.591 60.6294C153.591 60.6294 149.612 60.1043 147.921 60.6872C147.921 60.6872 149.869 59.0278 154.164 60.2356L156.479 58.8545C156.479 58.8545 153.082 58.1246 151.061 58.3872C151.061 58.3872 153.192 57.2372 157.156 58.4817L158.805 57.7413C158.805 57.7413 156.321 57.2529 155.592 57.1742C154.862 57.0954 154.825 56.8959 154.825 56.8959C156.401 56.637 158.018 56.8187 159.498 57.421C159.498 57.421 163.041 56.145 162.973 55.9244Z" fill="#00BFA6"/>
<path opacity="0.1" d="M443.643 113.466C443.643 113.466 423.693 112.264 426.024 126.263C426.024 126.263 425.556 128.736 427.798 129.86C427.798 129.86 427.835 128.81 429.846 129.172C430.564 129.293 431.293 129.328 432.019 129.277C432.989 129.206 433.91 128.823 434.644 128.185C434.644 128.185 440.262 125.864 442.441 116.685C442.441 116.685 444.058 114.684 444.016 114.17L440.645 115.609C440.645 115.609 441.795 118.04 440.892 120.062C440.892 120.062 440.782 115.698 440.136 115.798C440.005 115.798 438.382 116.643 438.382 116.643C438.382 116.643 440.362 120.881 438.871 123.958C438.871 123.958 439.438 118.738 437.763 116.948L435.39 118.334C435.39 118.334 437.705 122.708 436.135 126.279C436.135 126.279 436.54 120.802 434.891 118.67L432.744 120.35C432.744 120.35 434.917 124.662 433.589 127.623C433.589 127.623 433.416 121.248 432.277 120.765C432.277 120.765 430.397 122.425 430.108 123.107C430.108 123.107 431.599 126.258 430.675 127.891C430.675 127.891 430.108 123.643 429.625 123.622C429.625 123.622 427.751 126.436 427.557 128.348C427.648 126.565 428.205 124.838 429.174 123.338C428.092 123.543 427.094 124.06 426.302 124.824C426.302 124.824 426.596 122.834 429.636 122.661C429.636 122.661 431.184 120.524 431.599 120.392C431.599 120.392 428.575 120.14 426.738 120.954C426.738 120.954 428.355 119.08 432.151 119.904L434.251 118.171C434.251 118.171 430.266 117.646 428.58 118.229C428.58 118.229 430.523 116.57 434.823 117.777L437.133 116.396C437.133 116.396 433.736 115.666 431.715 115.929C431.715 115.929 433.846 114.779 437.81 116.023L439.464 115.283C439.464 115.283 436.975 114.795 436.246 114.716C435.516 114.637 435.479 114.438 435.479 114.438C437.055 114.175 438.673 114.357 440.152 114.963C440.152 114.963 443.706 113.687 443.643 113.466Z" fill="#00BFA6"/>
<path opacity="0.1" d="M196.574 142.41C196.574 142.41 187.88 124.383 176.812 133.268C176.812 133.268 174.424 134.066 174.539 136.571C174.539 136.571 175.458 136.093 176.114 138.026C176.359 138.709 176.684 139.361 177.08 139.969C177.617 140.792 178.408 141.419 179.333 141.754C179.333 141.754 184.094 145.524 193.172 142.951C193.172 142.951 195.708 143.387 196.122 143.083L193.224 140.84C193.224 140.84 191.649 143.03 189.455 143.224C189.455 143.224 193.214 141.003 192.81 140.488C192.726 140.383 191.234 139.37 191.234 139.37C191.234 139.37 188.499 143.167 185.087 143.361C185.087 143.361 189.917 141.313 190.662 138.976L188.3 137.579C188.3 137.579 185.606 141.738 181.727 142.106C181.727 142.106 186.704 139.79 187.759 137.312L185.249 136.261C185.249 136.261 182.546 140.263 179.312 140.551C179.312 140.551 184.793 137.291 184.656 136.057C184.656 136.057 182.288 135.227 181.553 135.306C181.553 135.306 179.548 138.136 177.658 138.136C177.658 138.136 181.086 135.568 180.876 135.153C180.876 135.153 177.506 134.891 175.731 135.678C177.33 134.883 179.109 134.521 180.892 134.628C180.185 133.785 179.247 133.166 178.193 132.848C178.193 132.848 180.073 132.134 181.706 134.702C181.706 134.702 184.331 135.012 184.64 135.311C184.64 135.311 183.386 132.549 181.784 131.346C181.784 131.346 184.21 131.835 185.318 135.547L187.864 136.555C187.864 136.555 186.399 132.817 185.05 131.635C185.05 131.635 187.444 132.523 188.489 136.886L190.82 138.23C190.82 138.23 189.806 134.907 188.588 133.273C188.588 133.273 190.631 134.576 191.476 138.64L192.93 139.722C192.93 139.722 192.143 137.312 191.88 136.639C191.618 135.967 191.749 135.831 191.749 135.831C192.748 137.077 193.38 138.577 193.576 140.163C193.576 140.163 196.385 142.568 196.574 142.41Z" fill="#00BFA6"/>
<path opacity="0.1" d="M398.062 87.9983C398.062 87.9983 389.373 69.9712 378.3 78.8561C378.3 78.8561 375.917 79.6542 376.027 82.159C376.027 82.159 376.951 81.6864 377.602 83.6136C377.847 84.2995 378.173 84.9535 378.573 85.5618C379.109 86.384 379.898 87.0091 380.82 87.3419C380.82 87.3419 385.587 91.1122 394.66 88.5444C394.66 88.5444 397.195 88.975 397.615 88.6704L394.733 86.4229C394.733 86.4229 393.158 88.6179 390.969 88.8122C390.969 88.8122 394.723 86.5857 394.318 86.0711C394.234 85.9661 392.743 84.9526 392.743 84.9526C392.743 84.9526 390.013 88.7492 386.595 88.9435C386.595 88.9435 391.431 86.8955 392.176 84.564L389.777 83.1777C389.777 83.1777 387.089 87.3314 383.204 87.7042C383.204 87.7042 388.181 85.3832 389.241 82.9047L386.727 81.8545C386.727 81.8545 384.023 85.8611 380.794 86.1446C380.794 86.1446 386.27 82.8837 386.133 81.6549C386.133 81.6549 383.771 80.82 383.036 80.904C383.036 80.904 381.03 83.7291 379.135 83.7291C379.135 83.7291 382.569 81.1613 382.359 80.7465C382.359 80.7465 378.988 80.4839 377.208 81.2716C378.807 80.4764 380.587 80.1143 382.369 80.2214C381.665 79.3774 380.728 78.7585 379.676 78.4412C379.676 78.4412 381.555 77.7271 383.188 80.2949C383.188 80.2949 385.813 80.6099 386.123 80.9093C386.123 80.9093 384.868 78.1419 383.262 76.9394C383.262 76.9394 385.687 77.433 386.795 81.1666L389.347 82.1748C389.347 82.1748 387.882 78.4307 386.532 77.2492C386.532 77.2492 388.926 78.1367 389.966 82.5003L392.302 83.8446C392.302 83.8446 391.284 80.5259 390.066 78.8876C390.066 78.8876 392.113 80.1899 392.953 84.2542L394.408 85.3359C394.408 85.3359 393.625 82.9257 393.358 82.2535C393.09 81.5814 393.226 81.4501 393.226 81.4501C394.222 82.698 394.853 84.1976 395.048 85.7823C395.048 85.7823 397.899 88.1663 398.062 87.9983Z" fill="#00BFA6"/>
<path opacity="0.1" d="M425.829 177.168C425.829 177.168 417.14 159.135 406.052 168.02C406.052 168.02 403.669 168.818 403.779 171.323C403.779 171.323 404.703 170.85 405.354 172.778C405.597 173.463 405.921 174.117 406.32 174.726C406.855 175.548 407.644 176.173 408.567 176.506C408.567 176.506 413.334 180.281 422.412 177.708C422.412 177.708 424.942 178.144 425.362 177.834L422.464 175.592C422.464 175.592 420.889 177.787 418.695 177.981C418.695 177.981 422.448 175.755 422.044 175.24C421.96 175.135 420.469 174.122 420.469 174.122C420.469 174.122 417.739 177.918 414.321 178.118C414.321 178.118 419.157 176.065 419.902 173.733L417.534 172.336C417.534 172.336 414.846 176.495 410.961 176.863C410.961 176.863 415.938 174.542 416.999 172.063L414.484 171.013C414.484 171.013 411.78 175.015 408.551 175.303C408.551 175.303 414.032 172.042 413.896 170.808C413.896 170.808 411.528 169.973 410.793 170.057C410.793 170.057 408.788 172.883 406.892 172.883C406.892 172.883 410.326 170.315 410.116 169.9C410.116 169.9 406.745 169.637 404.966 170.425C406.567 169.63 408.347 169.268 410.132 169.375C409.426 168.53 408.488 167.911 407.433 167.595C407.433 167.595 409.313 166.875 410.945 169.448C410.945 169.448 413.57 169.758 413.88 170.057C413.88 170.057 412.625 167.295 411.024 166.088C411.024 166.088 413.45 166.581 414.557 170.315L417.104 171.323C417.104 171.323 415.639 167.579 414.29 166.403C414.29 166.403 416.684 167.285 417.723 171.654L420.06 172.993C420.06 172.993 419.041 169.674 417.823 168.036C417.823 168.036 419.871 169.338 420.716 173.408L422.17 174.458C422.17 174.458 421.383 172.048 421.12 171.376C420.858 170.703 420.989 170.572 420.989 170.572C421.987 171.819 422.618 173.319 422.811 174.904C422.811 174.904 425.667 177.325 425.829 177.168Z" fill="#00BFA6"/>
<path opacity="0.1" d="M106.026 411.772C112.692 411.772 118.095 411.168 118.095 410.422C118.095 409.677 112.692 409.073 106.026 409.073C99.3595 409.073 93.9556 409.677 93.9556 410.422C93.9556 411.168 99.3595 411.772 106.026 411.772Z" fill="#00BFA6"/>
<path opacity="0.1" d="M26.9014 388.835C33.5675 388.835 38.9714 388.231 38.9714 387.485C38.9714 386.74 33.5675 386.136 26.9014 386.136C20.2354 386.136 14.8315 386.74 14.8315 387.485C14.8315 388.231 20.2354 388.835 26.9014 388.835Z" fill="#00BFA6"/>
<path opacity="0.1" d="M166.339 427.005C173.005 427.005 178.408 426.401 178.408 425.656C178.408 424.91 173.005 424.306 166.339 424.306C159.672 424.306 154.269 424.91 154.269 425.656C154.269 426.401 159.672 427.005 166.339 427.005Z" fill="#00BFA6"/>
<path opacity="0.1" d="M475.411 393.823C482.077 393.823 487.481 393.219 487.481 392.474C487.481 391.729 482.077 391.124 475.411 391.124C468.745 391.124 463.341 391.729 463.341 392.474C463.341 393.219 468.745 393.823 475.411 393.823Z" fill="#00BFA6"/>
<path opacity="0.1" d="M374.972 387.275C381.638 387.275 387.042 386.671 387.042 385.926C387.042 385.18 381.638 384.576 374.972 384.576C368.306 384.576 362.902 385.18 362.902 385.926C362.902 386.671 368.306 387.275 374.972 387.275Z" fill="#00BFA6"/>
<path opacity="0.1" d="M309.997 419.213C317.881 419.213 324.272 418.115 324.272 416.76C324.272 415.406 317.881 414.308 309.997 414.308C302.113 414.308 295.722 415.406 295.722 416.76C295.722 418.115 302.113 419.213 309.997 419.213Z" fill="#00BFA6"/>
<path d="M316.365 392.112C316.365 392.112 296.488 402.383 306.757 414.481C306.757 414.481 307.723 417.107 310.516 416.923C310.516 416.923 309.96 415.904 312.091 415.09C312.85 414.797 313.571 414.415 314.239 413.951C315.141 413.327 315.816 412.425 316.16 411.383C316.16 411.383 320.224 405.943 317.074 395.877C317.074 395.877 317.483 393.031 317.126 392.568L314.711 395.882C314.711 395.882 317.205 397.557 317.494 400.02C317.494 400.02 314.869 395.887 314.344 396.344C314.228 396.439 313.147 398.156 313.147 398.156C313.147 398.156 317.473 401.091 317.793 404.903C317.793 404.903 315.357 399.563 312.727 398.802L311.22 401.49C311.22 401.49 315.945 404.368 316.47 408.695C316.47 408.695 313.724 403.207 310.921 402.099L309.813 404.94C309.813 404.94 314.37 407.839 314.79 411.441C314.79 411.441 310.978 405.418 309.608 405.607C309.608 405.607 308.747 408.275 308.863 409.099C308.863 409.099 312.081 411.252 312.139 413.368C312.139 413.368 309.167 409.614 308.71 409.86C308.71 409.86 308.521 413.636 309.435 415.6C309.435 415.6 307.86 412.796 308.117 409.86C307.196 410.675 306.534 411.741 306.211 412.927C306.211 412.927 305.356 410.853 308.175 408.941C308.175 408.941 308.443 406.006 308.768 405.644C308.768 405.644 305.718 407.135 304.421 408.962C304.421 408.962 304.899 406.237 309.036 404.882L310.086 402.005C310.086 402.005 305.949 403.759 304.673 405.302C304.673 405.302 305.592 402.598 310.411 401.301L311.839 398.675C311.839 398.675 308.164 399.915 306.369 401.301C306.369 401.301 307.76 398.975 312.28 397.904L313.441 396.249C313.441 396.249 310.774 397.2 310.028 397.541C309.283 397.883 309.136 397.715 309.136 397.715C310.498 396.562 312.154 395.809 313.919 395.541C313.919 395.541 316.549 392.29 316.365 392.112Z" fill="#00BFA6"/>
<path d="M375.36 198.119C371.927 188.788 353.026 187.911 344.826 190.29C338.998 191.986 326.713 193.898 320.15 194.859L319.725 194.454C320.576 194.202 320.597 193.582 320.492 192.664C320.431 191.452 320.448 190.239 320.544 189.03C324.566 190.28 328.146 187.323 328.146 187.323C332.871 185.223 331.601 176.233 332.504 173.775C333.181 171.937 333.911 161.11 334.236 155.711H334.305L334.341 153.9C334.389 153.117 334.41 152.661 334.41 152.661C334.41 152.661 334.872 139.459 335.775 136.786C336.615 134.329 337.297 121.947 337.402 119.983C337.402 119.815 337.402 119.726 337.402 119.726L337.334 118.581C337.381 117.746 337.402 116.816 337.397 115.84C337.397 111.35 336.93 105.695 336.872 104.781C336.872 104.65 336.872 104.492 336.872 104.303C336.909 102.386 336.667 92.7873 328.503 89.1588C325.495 87.8145 321.878 86.2129 318.376 84.6533C317.473 76.8554 315.41 69.0995 315.588 61.2438C315.588 60.0623 315.693 58.8808 315.809 57.7046C315.809 58.0459 315.772 58.3924 315.767 58.7548C315.767 59.5162 315.767 60.2828 315.767 61.0443C316.076 51.2194 319.788 41.3421 319.442 31.7273C319.41 32.6672 319.342 33.6124 319.253 34.5576C319.434 31.3055 319.094 28.0453 318.245 24.9008C317.93 23.7928 317.504 22.6481 316.596 21.9077C315.738 21.3114 314.753 20.9214 313.719 20.7682C311.235 20.1322 308.711 19.662 306.164 19.3609C305.777 18.1761 305.203 17.061 304.463 16.0579C299.14 8.74837 291.254 1.87991 281.93 0.304575C277.252 -0.483093 271.871 0.173296 268.689 3.51826C268.357 3.81211 268.045 4.12788 267.755 4.46346C266.043 6.50615 265.308 9.18947 263.554 11.2269C263.439 11.3634 263.308 11.4895 263.182 11.6207C259.748 14.6926 254.398 15.3333 250.581 18.0901C249.909 18.585 249.279 19.1348 248.697 19.7337C247.159 21.2581 245.78 22.9348 244.581 24.738C242.864 27.1535 241.1 29.6688 240.554 32.5517C239.457 38.3279 243.389 43.8048 244.119 49.6178C245.746 62.6249 231.356 74.1668 234.08 87.0005C234.808 90.1534 236.413 93.0356 238.711 95.3131C233.099 100.396 228.321 105.327 228.321 105.327V105.621H227.434L227.523 106.671H227.434L227.922 112.369L227.434 120.665C227.434 120.665 227.434 120.755 227.434 120.923V120.965V121.191C227.434 121.191 227.434 121.28 227.434 121.448H227.465C227.628 124.488 228.274 135.421 229.04 137.726C229.943 140.399 230.4 153.6 230.4 153.6C230.4 153.6 231.398 172.258 232.311 174.726C233.225 177.194 231.928 186.157 236.669 188.274C238.056 189.338 239.698 190.019 241.431 190.248C241.189 192.212 241.341 193.635 242.124 194.081C242.458 194.278 242.838 194.387 243.226 194.396C242.904 194.874 242.618 195.374 242.37 195.893C240.489 195.696 238.64 195.261 236.868 194.596C231.776 192.495 214.876 187.769 209.967 191.093C205.058 194.417 193.245 197.432 198.7 210.811C204.155 224.191 206.696 224.527 206.696 224.527C208.375 225.746 209.848 227.227 211.059 228.912C212.697 231.375 227.959 237.009 231.776 237.009C233.398 236.984 235.02 237.065 236.632 237.251C236.632 237.251 232.49 240.885 233.041 242.996C233.592 245.106 231.781 262.005 231.781 262.005C231.781 262.005 235.981 266.237 237.776 260.687L237.839 260.771C238.175 261.227 239.992 263.291 243.41 260.687C244.809 259.625 246.294 258.684 247.851 257.872L264.4 255.53C266.125 255.422 267.855 255.41 269.582 255.493C272.207 255.708 274.784 254.154 276.407 252.952C279.835 254.254 283.689 255.677 285.521 256.197C289.238 257.247 306.322 261.831 310.317 260.398C311.147 260.067 311.886 259.541 312.469 258.864L316.281 258.985L314.496 259.342C314.496 259.342 317.972 259.4 322.697 259.463L322.497 259.579L328.425 259.526C337.098 259.605 346.842 259.631 348.123 259.342C350.128 258.896 360.55 259.211 363.621 259.342H364.477C364.477 259.342 375.927 257.058 371.202 245.437C367.569 236.51 356.402 233.916 351.446 233.202C352.843 232.924 354.045 232.709 354.843 232.583C358.303 232.057 365.023 228.907 365.569 227.83C366.115 226.754 371.748 223.629 373.203 221.849C374.657 220.069 378.81 207.451 375.36 198.119ZM280.517 224.233L279.956 224.417L279.578 224.543L278.853 225.257C278.276 224.869 277.656 224.459 277.01 224.039C278.15 224.107 279.32 224.176 280.517 224.233Z" fill="url(#paint0_linear)"/>
<path d="M313.992 168.866C313.992 168.866 322.025 189.87 326.592 187.77C331.16 185.669 329.921 176.742 330.792 174.295C331.664 171.848 332.63 153.291 332.63 153.291C332.63 153.291 333.071 140.163 333.942 137.506C334.751 135.064 335.407 122.75 335.517 120.812C335.517 120.644 335.517 120.555 335.517 120.555L334.651 105.327L329.748 104.103L318.376 108.304L316.801 117.299L316.187 120.812L315.924 122.309L313.992 168.866Z" fill="#BE6F72"/>
<path opacity="0.1" d="M316.638 165.347C316.638 165.347 324.303 171.622 326.613 172.174C328.923 172.725 330.341 177.619 330.341 177.619" fill="black"/>
<path d="M251.175 169.784C251.175 169.784 243.142 190.789 238.574 188.688C234.007 186.588 235.246 177.661 234.374 175.214C233.503 172.767 232.537 154.21 232.537 154.21C232.537 154.21 232.096 141.082 231.224 138.425C230.416 135.983 229.76 123.669 229.649 121.731C229.649 121.563 229.649 121.474 229.649 121.474L230.521 106.246L235.424 105.022L246.796 109.223L248.371 118.218L248.985 121.731L249.248 123.228L251.175 169.784Z" fill="#BE6F72"/>
<path d="M303.481 57.379H285.552V85.3307H303.481V57.379Z" fill="#3E373A"/>
<path opacity="0.1" d="M303.481 57.379H285.552V85.3307H303.481V57.379Z" fill="black"/>
<path d="M248.025 190.705C248.025 190.705 241.898 197.442 244.171 198.666C246.444 199.889 261.15 222.821 261.15 222.821C261.15 222.821 309.451 228.77 318.56 219.843C327.668 210.916 327.485 194.969 327.485 194.969C327.485 194.969 320.166 196.544 319.368 195.688C318.57 194.832 314.186 190.705 314.186 190.705C314.186 190.705 252.225 186.945 248.025 190.705Z" fill="#4B4B5B"/>
<path opacity="0.02" d="M248.025 190.705C248.025 190.705 241.898 197.442 244.171 198.666C246.444 199.889 261.15 222.821 261.15 222.821C261.15 222.821 309.451 228.77 318.56 219.843C327.668 210.916 327.485 194.969 327.485 194.969C327.485 194.969 320.166 196.544 319.368 195.688C318.57 194.832 314.186 190.705 314.186 190.705C314.186 190.705 252.225 186.945 248.025 190.705Z" fill="black"/>
<path d="M334.977 105.548L319.226 118.15L314.465 118.497L312.716 118.623L283.353 120.776L252.902 118.549L248.371 118.218L242.596 117.798L230.521 106.246C230.521 106.246 239.068 97.0879 246.555 90.9074C249.505 88.4656 252.293 86.4912 254.325 85.714L254.671 85.5932C255.949 85.0948 257.09 84.2992 258 83.2723C263.911 77.1757 269.377 62.1313 269.377 62.1313C269.377 62.1313 295.454 48.6569 292.304 66.3321C289.154 84.0074 304.027 79.6385 304.027 79.6385L308.931 81.8755L310.868 82.7629L315.809 85.0261L326.955 90.1407C335.701 94.1683 334.977 105.548 334.977 105.548Z" fill="#BE6F72"/>
<path opacity="0.1" d="M282.129 76.5246C295.082 76.5246 305.581 66.0226 305.581 53.0678C305.581 40.113 295.082 29.6111 282.129 29.6111C269.177 29.6111 258.677 40.113 258.677 53.0678C258.677 66.0226 269.177 76.5246 282.129 76.5246Z" fill="black"/>
<path opacity="0.1" d="M335.013 122.257H229.649C229.649 122.089 229.649 121.999 229.649 121.999L230.521 106.771C230.521 106.771 239.068 97.6131 246.555 91.4325L312.706 88.8069L315.782 85.5617L326.928 90.6763C335.68 94.6987 334.977 106.078 334.977 106.078C334.977 106.078 336.174 119.263 335.013 122.257Z" fill="black"/>
<path d="M335.013 121.731H229.649C229.649 121.563 229.649 121.474 229.649 121.474L230.521 106.246C230.521 106.246 239.068 97.0879 246.555 90.9074L312.706 88.2818L315.782 85.0366L326.928 90.1512C335.68 94.1736 334.977 105.553 334.977 105.553C334.977 105.553 336.174 118.738 335.013 121.731Z" fill="#E7C7CA"/>
<path opacity="0.1" d="M265.24 79.0293C265.24 79.0293 281.862 100.212 304.001 78.5935C326.141 56.9746 306.453 126.815 306.453 126.815L258.677 132.486L265.24 79.0293Z" fill="black"/>
<path d="M265.24 80.0796C265.24 80.0796 281.862 101.263 304.001 79.6437C326.141 58.0249 306.453 127.865 306.453 127.865L258.677 133.536L265.24 80.0796Z" fill="#E7C7CA"/>
<path opacity="0.1" d="M310.842 83.7974L312.601 110.625L314.485 119.552L315.924 126.379C315.924 126.379 319.599 178.89 318.549 181.515C317.499 184.141 319.074 186.241 319.295 187.638C319.515 189.035 319.074 192.543 319.247 194.118C319.421 195.693 319.247 196.392 315.226 195.83C311.204 195.268 305.597 194.291 305.597 194.291C305.597 194.291 291.422 195.342 286.524 193.593C281.625 191.844 272.348 191.839 272.348 191.839C272.348 191.839 258.346 192.191 253.8 191.666C249.253 191.141 246.796 197.269 243.825 195.515C240.853 193.761 247.321 176.789 249.421 171.885C251.521 166.98 246.623 154.556 246.623 154.556L252.923 119.6L254.325 111.676V86.7642L254.671 86.6435C255.949 86.145 257.09 85.3494 258 84.3225L259.575 109.391L308.926 111.145V82.9309" fill="black"/>
<path d="M310.842 82.7471L312.601 109.575L314.485 118.502L315.924 125.328C315.924 125.328 319.599 177.84 318.549 180.465C317.499 183.091 319.074 185.191 319.295 186.588C319.515 187.985 319.074 191.493 319.247 193.068C319.421 194.643 319.247 195.342 315.226 194.78C311.204 194.218 305.597 193.241 305.597 193.241C305.597 193.241 291.422 194.291 286.524 192.543C281.625 190.794 272.348 190.789 272.348 190.789C272.348 190.789 258.346 191.141 253.8 190.616C249.253 190.091 246.796 196.219 243.825 194.465C240.853 192.711 247.321 175.739 249.421 170.835C251.521 165.93 246.623 153.506 246.623 153.506L252.923 118.549L254.325 110.625V85.714L254.671 85.5932C255.949 85.0948 257.09 84.2992 258 83.2722L259.575 108.341L308.926 110.095V81.8807" fill="#E7C7CA"/>
<path opacity="0.1" d="M316.517 26.7597C316.218 25.6622 315.803 24.5227 314.942 23.7876C314.12 23.1971 313.171 22.8085 312.17 22.6533C309.776 22.0235 307.341 21.5568 304.883 21.2565C304.532 20.0905 304.001 18.9867 303.308 17.9851C298.163 10.7175 290.55 3.86484 281.594 2.31576C276.905 1.50183 271.472 2.23174 268.469 5.92852C266.82 7.96071 266.111 10.6545 264.447 12.65C261.239 16.5253 255.448 17.0031 251.406 20.0015C249.248 21.5769 247.683 23.8611 246.156 26.0771C244.502 28.4768 242.801 30.9764 242.276 33.8435C241.226 39.5724 245.011 45.0336 245.709 50.8151C247.284 63.7486 233.424 75.2223 236.044 87.9825C237.572 95.4233 244.444 100.664 251.553 103.321C254.057 104.261 256.918 105.196 258.089 107.601C258.614 108.651 258.703 109.864 259.197 110.925C260.856 114.464 266.311 114.6 269.24 112.022C272.17 109.444 273.094 105.274 273.44 101.383C274.847 84.3907 268.043 67.6029 268.836 50.5683C269.072 45.4169 270.521 39.5724 275.136 37.2409C281.347 34.0903 288.818 39.3414 295.653 38.3384C298.888 46.2106 299.575 54.8988 297.617 63.1815C296.53 67.7132 294.651 72.1084 294.514 76.7819C294.309 83.8971 298.147 90.398 301.465 96.6889C302.177 97.8652 302.653 99.169 302.867 100.527C302.919 101.906 302.663 103.278 302.116 104.545C300.242 109.591 297.008 114.275 296.64 119.647C296.533 120.274 296.674 120.918 297.034 121.443C297.404 121.793 297.882 122.007 298.389 122.052C304.059 123.023 308.962 117.998 311.729 112.952C314.814 107.378 316.612 101.184 316.99 94.8247C317.562 84.1334 313.73 73.6154 313.966 62.9137C314.239 50.7468 319.736 38.496 316.517 26.7597Z" fill="black"/>
<path d="M317.042 26.2346C316.743 25.1371 316.328 23.9976 315.467 23.2625C314.645 22.672 313.695 22.2834 312.695 22.1282C310.301 21.4984 307.866 21.0317 305.408 20.7314C305.057 19.5654 304.526 18.4616 303.833 17.46C298.688 10.1924 291.075 3.33972 282.119 1.79064C277.43 0.976716 271.997 1.70662 268.994 5.40341C267.345 7.43559 266.636 10.1294 264.972 12.1248C261.764 16.0002 255.973 16.478 251.931 19.4764C249.773 21.0517 248.208 23.336 246.681 25.552C245.027 27.9517 243.326 30.4513 242.801 33.3184C241.751 39.0473 245.536 44.5085 246.234 50.29C247.809 63.2235 233.949 74.6972 236.569 87.4574C238.097 94.8982 244.969 100.139 252.078 102.796C254.582 103.736 257.443 104.671 258.614 107.076C259.139 108.126 259.228 109.339 259.722 110.4C261.381 113.939 266.836 114.075 269.765 111.497C272.695 108.919 273.619 104.749 273.965 100.858C275.372 83.8656 268.568 67.0778 269.361 50.0432C269.597 44.8918 271.046 39.0473 275.661 36.7158C281.872 33.5652 289.343 38.8163 296.178 37.8133C299.413 45.6855 300.1 54.3736 298.142 62.6564C297.055 67.1881 295.176 71.5833 295.039 76.2568C294.834 83.372 298.672 89.8729 301.99 96.1638C302.702 97.3401 303.178 98.6439 303.392 100.002C303.444 101.381 303.188 102.753 302.641 104.019C300.767 109.066 297.533 113.75 297.165 119.122C297.058 119.749 297.199 120.393 297.559 120.918C297.929 121.268 298.407 121.482 298.914 121.527C304.584 122.498 309.487 117.473 312.254 112.426C315.339 106.853 317.137 100.659 317.515 94.2996C318.087 83.6083 314.255 73.0903 314.491 62.3886C314.764 50.2217 320.261 37.9709 317.042 26.2346Z" fill="#3E373A"/>
<path d="M305.445 258.738L326.272 259.405L323.285 243.956L307.33 245.474L305.445 258.738Z" fill="#C3C7D9"/>
<path d="M369.979 222.122C368.577 223.871 363.154 227.022 362.629 228.072C362.104 229.122 355.63 232.273 352.302 232.798C348.973 233.323 338.478 235.602 336.552 236.825C335.171 237.708 324.088 240.501 316.806 242.05C314.834 242.517 312.837 242.876 310.826 243.127C307.676 243.3 273.204 231.574 273.204 231.574L279.851 224.748L280.218 224.622C282.098 223.986 290.781 221.051 295.601 219.654C301.03 218.079 307.33 211.604 307.33 211.604C307.33 211.604 316.601 208.454 317.83 208.102C319.058 207.75 314.68 195.851 314.68 195.851C314.68 195.851 334.803 193.057 342.678 190.689C350.554 188.321 368.756 189.198 372.079 198.477C375.402 207.755 371.402 220.374 369.979 222.122Z" fill="#4B4B5B"/>
<path d="M278.276 251.702C278.276 251.702 274.254 255.903 270.227 255.556C266.201 255.21 252.12 256.606 252.12 256.606C249.568 257.625 247.179 259.01 245.027 260.718C241.735 263.312 239.987 261.243 239.661 260.802L239.604 260.718C237.85 266.237 233.828 262.031 233.828 262.031C233.828 262.031 235.577 245.227 235.041 243.127C234.506 241.026 238.501 237.419 238.501 237.419L243.226 236.216L255.196 233.15L272.348 239.099L278.276 251.702Z" fill="#E7C7CA"/>
<path opacity="0.1" d="M243.205 236.216L239.661 260.802L239.604 260.718C237.85 266.237 233.828 262.031 233.828 262.031C233.828 262.031 235.577 245.227 235.041 243.127C234.506 241.026 238.501 237.419 238.501 237.419L243.205 236.216Z" fill="black"/>
<path opacity="0.1" d="M267.975 166.282C267.975 166.282 277.247 169.433 285.3 166.282H267.975Z" fill="black"/>
<path opacity="0.1" d="M299.628 172.237C299.628 172.237 303.476 174.159 306.453 172.237H299.628Z" fill="black"/>
<path opacity="0.1" d="M299.628 176.795C299.628 176.795 306.101 177.661 307.33 175.912L299.628 176.795Z" fill="black"/>
<path opacity="0.1" d="M297.528 186.588C297.528 186.588 309.687 185.013 312.706 182.912L297.528 186.588Z" fill="black"/>
<path opacity="0.1" d="M260.425 182.912C260.425 182.912 267.25 186.761 272.327 186.588L260.425 182.912Z" fill="black"/>
<path opacity="0.1" d="M316.801 242.05C314.828 242.517 312.832 242.876 310.821 243.127C307.671 243.3 273.199 231.574 273.199 231.574L279.845 224.748L280.213 224.622C281.263 225.362 282.124 225.998 282.738 226.481C285.631 228.76 288.424 225.782 289.474 225.782C290.524 225.782 299.623 233.307 299.623 233.307C299.623 233.307 308.023 235.234 309.424 236.983C310.826 238.732 315.725 238.385 316.596 239.609C316.859 239.987 316.89 240.916 316.801 242.05Z" fill="black"/>
<path d="M252.12 196.565C252.12 196.565 243.625 197.054 238.727 194.99C233.828 192.926 217.553 188.163 212.828 191.508C208.103 194.853 196.726 197.81 201.976 211.116C207.226 224.422 209.678 224.769 209.678 224.769C211.302 225.987 212.721 227.459 213.878 229.127C215.453 231.58 230.153 237.177 233.828 237.177C237.504 237.177 243.977 237.177 253.075 243.479C262.174 249.78 270.401 250.484 270.401 250.484C270.401 250.484 281.951 255.21 285.547 256.26C289.143 257.31 305.576 261.858 309.43 260.461C313.283 259.064 315.73 250.305 315.73 250.305C315.73 250.305 317.478 242.428 316.601 241.205C315.725 239.981 310.826 240.328 309.43 238.579C308.033 236.831 299.628 234.904 299.628 234.904C299.628 234.904 290.55 227.373 289.5 227.373C288.45 227.373 285.657 230.346 282.764 228.072C277.002 223.803 270.948 219.943 264.646 216.519C258 213.017 252.12 196.565 252.12 196.565Z" fill="#4B4B5B"/>
<path opacity="0.1" d="M235.041 201.643C236.554 201.334 238.117 201.378 239.61 201.773C241.102 202.167 242.483 202.901 243.646 203.917C247.846 207.419 261.979 214.45 261.979 214.45" fill="black"/>
<path opacity="0.1" d="M340.053 201.422C340.053 201.422 321.326 204.258 317.83 208.107L340.053 201.422Z" fill="black"/>
<path d="M361.579 259.405H360.754C357.793 259.3 347.761 258.985 345.828 259.405C343.555 259.93 313.451 259.405 313.451 259.405L319.337 258.182C319.337 258.182 317.152 250.526 318.539 249.89C318.539 249.89 310.663 244.702 316.601 241.2C322.539 237.697 328.939 239.173 328.939 239.173L343.844 234.121L346.705 233.15C346.705 233.15 363.506 234.027 368.052 245.579C372.599 257.132 361.579 259.405 361.579 259.405Z" fill="#E7C7CA"/>
<path opacity="0.1" d="M361.579 259.405H360.755C365.642 255.372 376.699 243.095 343.844 234.147L346.705 233.176C346.705 233.176 363.506 234.053 368.052 245.605C372.599 257.158 361.579 259.405 361.579 259.405Z" fill="black"/>
<path d="M330.693 245.794C331.2 245.794 331.611 245.383 331.611 244.875C331.611 244.368 331.2 243.956 330.693 243.956C330.185 243.956 329.774 244.368 329.774 244.875C329.774 245.383 330.185 245.794 330.693 245.794Z" fill="#4B4B5B"/>
<path d="M325.353 247.312C325.861 247.312 326.272 246.901 326.272 246.393C326.272 245.885 325.861 245.474 325.353 245.474C324.846 245.474 324.434 245.885 324.434 246.393C324.434 246.901 324.846 247.312 325.353 247.312Z" fill="#4B4B5B"/>
<g opacity="0.1">
<path opacity="0.1" d="M299.339 52.2014C299.543 46.4256 298.515 40.6725 296.326 35.3243C289.5 36.343 282.024 31.0761 275.808 34.2268C271.209 36.5583 269.765 42.4028 269.508 47.5541C269.445 48.9142 269.435 50.2742 269.461 51.6343C269.461 51.1511 269.461 50.6628 269.508 50.1797C269.75 45.0283 271.193 39.1838 275.808 36.8523C282.024 33.7017 289.49 38.9528 296.326 37.9498C298.18 42.48 299.201 47.3081 299.339 52.2014Z" fill="black"/>
<path opacity="0.1" d="M246.45 51.2404C246.54 50.0962 246.517 48.9459 246.381 47.8062C245.825 43.1852 243.3 38.769 242.843 34.2635C242.255 39.6985 245.715 44.9181 246.381 50.4317C246.45 50.7153 246.45 50.9674 246.45 51.2404Z" fill="black"/>
<path opacity="0.1" d="M274.112 98.364C273.787 102.26 272.868 106.424 269.912 109.008C266.957 111.592 261.512 111.45 259.869 107.911C259.344 106.86 259.265 105.637 258.756 104.587C257.59 102.182 254.724 101.247 252.22 100.307C245.106 97.6446 238.244 92.4302 236.716 84.9684C236.58 84.2924 236.487 83.6083 236.438 82.9204C236.309 84.4836 236.402 86.0572 236.716 87.5939C238.244 95.0348 245.116 100.27 252.22 102.932C254.724 103.872 257.59 104.807 258.756 107.212C259.281 108.262 259.37 109.475 259.869 110.536C261.523 114.075 266.978 114.212 269.912 111.634C272.847 109.055 273.761 104.886 274.112 100.99C274.272 98.9387 274.327 96.8811 274.275 94.8247C274.275 96.0167 274.207 97.193 274.112 98.364Z" fill="black"/>
<path opacity="0.1" d="M314.664 59.8995C314.664 60.6609 314.664 61.4171 314.664 62.1733C314.958 52.4062 318.539 42.5866 318.187 33.0243C317.914 41.8672 314.864 50.9096 314.664 59.8995Z" fill="black"/>
<path opacity="0.1" d="M303.397 99.4089C303.527 98.7859 303.567 98.1477 303.518 97.5133C303.307 96.1543 302.83 94.8501 302.116 93.6747C299.082 87.8985 295.622 81.9857 295.212 75.5741C295.212 75.8472 295.176 76.0992 295.17 76.3933C294.96 83.5033 298.798 90.0094 302.116 96.3003C302.68 97.2746 303.111 98.3201 303.397 99.4089Z" fill="black"/>
<path opacity="0.1" d="M317.683 91.8106C317.291 98.1724 315.481 104.366 312.386 109.937C309.613 114.984 304.715 120.009 299.04 119.038C298.531 118.994 298.053 118.777 297.685 118.423C297.579 118.303 297.495 118.164 297.439 118.014C297.376 118.423 297.323 118.838 297.292 119.258C297.183 119.884 297.324 120.527 297.685 121.049C298.053 121.403 298.531 121.619 299.04 121.663C304.715 122.635 309.613 117.609 312.386 112.563C315.481 106.992 317.291 100.798 317.683 94.4361C317.746 93.2074 317.751 91.9839 317.714 90.7603C317.704 91.1122 317.704 91.4587 317.683 91.8106Z" fill="black"/>
</g>
<path opacity="0.1" d="M318.539 249.89C318.539 249.89 331.827 255.467 340.589 243.127" stroke="black" stroke-miterlimit="10"/>
<path opacity="0.1" d="M321.153 259.636C321.153 259.636 332.005 252.579 345.828 259.405" stroke="black" stroke-miterlimit="10"/>
<path opacity="0.1" d="M248.513 258.035C248.513 258.035 253.07 247.753 265.24 255.593" stroke="black" stroke-miterlimit="10"/>
<path opacity="0.1" d="M233.739 105.983L243.032 97.5816C243.032 97.5816 279.063 95.2186 280.554 107.469C280.554 107.469 293.328 92.9448 320.192 96.1795L331.559 105.232L300.142 119.022L269.613 129.613L247.127 119.547L233.739 105.983Z" fill="black"/>
<path d="M233.739 106.508L243.032 98.1067C243.032 98.1067 279.063 95.7437 280.554 107.995C280.554 107.995 293.328 93.4699 320.192 96.7046L331.559 105.758L300.142 119.547L269.613 130.138L247.127 120.072L233.739 106.508Z" fill="#D5D6DB"/>
<path opacity="0.1" d="M229.628 107.559L233.739 156.746L277.315 158.936L275.425 109.958L275.388 109.134L229.628 107.559Z" fill="black"/>
<path d="M229.628 106.508L233.739 155.696L277.315 157.885L275.425 108.908L275.388 108.084L229.628 106.508Z" fill="#00BFA6"/>
<path opacity="0.1" d="M333.554 106.508L288.603 113.251V162.659L332.53 156.31L333.554 106.508Z" fill="black"/>
<path d="M333.554 105.458L288.603 112.201V161.608L332.53 155.26L333.554 105.458Z" fill="#00BFA6"/>
<path opacity="0.3" d="M322.954 117.515L298.672 120.214L299.203 128.49L322.938 125.896L322.954 117.515Z" fill="white"/>
<path d="M236.102 182.035L238.575 188.688C238.575 188.688 242.25 191.839 246.271 190.264C250.293 188.688 253.8 187.906 255.548 186.373C257.296 184.839 259.748 177.136 259.748 177.136C259.748 177.136 262.2 168.734 264.647 166.634C267.093 164.533 273.572 135.594 264.647 138.425C255.721 141.255 248.896 167.511 248.896 167.511C248.896 167.511 247.321 169.433 245.048 169.611C242.775 169.79 238.223 169.259 237.346 171.186C236.469 173.114 233.477 178.186 236.102 182.035Z" fill="#BE6F72"/>
<path opacity="0.1" d="M288.603 113.246C286.301 113.764 283.91 113.737 281.621 113.166C279.332 112.596 277.208 111.497 275.42 109.958L277.315 158.93C277.315 158.93 281.777 163.761 288.603 162.659V113.246Z" fill="black"/>
<path d="M288.603 112.195C286.301 112.714 283.91 112.687 281.621 112.116C279.332 111.545 277.208 110.447 275.42 108.908L277.315 157.88C277.315 157.88 281.777 162.711 288.603 161.608V112.195Z" fill="#00BFA6"/>
<path opacity="0.1" d="M288.603 112.195C286.301 112.714 283.91 112.687 281.621 112.116C279.332 111.545 277.208 110.447 275.42 108.908L277.315 157.88C277.315 157.88 281.777 162.711 288.603 161.608V112.195Z" fill="black"/>
<path opacity="0.1" d="M289.653 106.676C289.653 106.676 307.939 101.084 312.706 101.872L289.653 106.676Z" fill="black"/>
<path opacity="0.1" d="M269.198 104.235C269.198 104.235 251.474 100.034 248.513 101.226L269.198 104.235Z" fill="black"/>
<path opacity="0.1" d="M301.182 107.375C301.182 107.375 313.409 102.89 317.83 105.022L301.182 107.375Z" fill="black"/>
<path opacity="0.1" d="M295.023 219.87C296.918 218.446 298.935 217.193 301.051 216.126C304.201 214.608 309.976 210.67 309.976 210.67" fill="black"/>
<path opacity="0.1" d="M248.513 166.282C248.513 166.282 240.843 172.557 238.538 173.108C236.233 173.66 234.81 178.554 234.81 178.554" fill="black"/>
<path d="M329.044 181.101L326.597 187.77C326.597 187.77 322.922 190.92 318.896 189.345C314.869 187.77 311.372 186.987 309.619 185.454C307.865 183.92 305.419 176.217 305.419 176.217C305.419 176.217 302.972 167.815 300.52 165.715C298.068 163.614 291.595 134.675 300.52 137.506C309.445 140.336 316.271 166.592 316.271 166.592C316.271 166.592 317.846 168.514 320.119 168.692C322.392 168.871 326.944 168.34 327.821 170.268C328.698 172.195 331.669 177.267 329.044 181.101Z" fill="#BE6F72"/>
<path opacity="0.1" d="M324.755 168.834C324.755 168.834 329.768 172.058 329.747 175.912L324.755 168.834Z" fill="black"/>
<path d="M282.213 75.3746C295.166 75.3746 305.665 64.8726 305.665 51.9178C305.665 38.963 295.166 28.4611 282.213 28.4611C269.261 28.4611 258.761 38.963 258.761 51.9178C258.761 64.8726 269.261 75.3746 282.213 75.3746Z" fill="#BE6F72"/>
<path d="M267.487 45.6217C270.332 45.1754 272.826 43.5213 275.546 42.5708C281.63 40.4336 288.361 41.8987 294.519 43.8258C296.882 44.5663 299.281 45.4012 301.759 45.4012C304.237 45.4012 306.868 44.3877 308.133 42.2505C309.298 40.2866 309.073 37.7345 308.091 35.6709C307.109 33.6072 305.466 31.9478 303.807 30.383C298.347 25.2264 291.574 20.4059 284.082 20.931C281.069 21.1463 278.186 22.2227 275.414 23.4147C271.924 24.9192 268.526 26.6306 265.24 28.5398C262.714 30.0049 258.037 31.9636 256.582 34.6416C253.275 40.6752 262.342 46.4304 267.487 45.6217Z" fill="#3E373A"/>
<path opacity="0.1" d="M308.133 40.0451C306.868 42.1823 304.237 43.1957 301.759 43.1957C299.281 43.1957 296.882 42.3923 294.514 41.6519C288.356 39.7247 281.63 38.2544 275.54 40.3969C272.826 41.3473 270.327 43.0224 267.481 43.4425C263.334 44.0937 256.656 40.4809 255.931 35.8862C255.118 41.1951 262.861 45.7425 267.481 45.0179C270.327 44.5715 272.826 42.9174 275.54 41.9722C281.63 39.8298 288.356 41.3001 294.514 43.2272C296.882 43.9676 299.276 44.8026 301.759 44.7711C304.243 44.7396 306.868 43.7628 308.133 41.6204C308.789 40.4549 309.047 39.1072 308.868 37.7818C308.786 38.5798 308.535 39.3513 308.133 40.0451Z" fill="black"/>
<path d="M498.454 324.629C498.454 324.629 501.567 328.699 497.015 334.848C492.464 340.997 488.715 346.185 490.227 350.019C490.227 350.019 497.094 338.603 502.68 338.44C508.266 338.277 504.591 331.493 498.454 324.629Z" fill="#00BFA6"/>
<path opacity="0.1" d="M498.454 324.629C498.725 325.023 498.939 325.452 499.089 325.905C504.539 332.312 507.447 338.293 502.202 338.44C497.32 338.582 491.466 347.314 490.064 349.514C490.109 349.692 490.163 349.868 490.227 350.04C490.227 350.04 497.094 338.624 502.68 338.461C508.266 338.298 504.591 331.493 498.454 324.629Z" fill="black"/>
<path d="M504.229 329.818C504.229 331.251 504.066 332.412 503.872 332.412C503.678 332.412 503.51 331.251 503.51 329.818C503.51 328.384 503.709 329.061 503.909 329.061C504.108 329.061 504.229 328.384 504.229 329.818Z" fill="#FFD037"/>
<path d="M506.219 331.529C504.964 332.212 503.867 332.627 503.772 332.454C503.678 332.28 504.617 331.582 505.872 330.878C507.127 330.175 506.633 330.689 506.728 330.878C506.822 331.067 507.479 330.842 506.219 331.529Z" fill="#FFD037"/>
<path d="M482 324.629C482 324.629 478.887 328.699 483.439 334.848C487.99 340.997 491.739 346.185 490.222 350.019C490.222 350.019 483.36 338.603 477.768 338.44C472.177 338.277 475.878 331.493 482 324.629Z" fill="#00BFA6"/>
<path opacity="0.1" d="M482 324.629C481.729 325.023 481.515 325.452 481.365 325.905C475.915 332.312 473.007 338.293 478.251 338.44C483.129 338.582 488.988 347.314 490.39 349.514C490.346 349.693 490.289 349.869 490.222 350.04C490.222 350.04 483.36 338.624 477.768 338.461C472.177 338.298 475.878 331.493 482 324.629Z" fill="black"/>
<path d="M476.214 329.818C476.214 331.251 476.372 332.412 476.571 332.412C476.771 332.412 476.934 331.251 476.934 329.818C476.934 328.384 476.729 329.061 476.535 329.061C476.34 329.061 476.214 328.384 476.214 329.818Z" fill="#FFD037"/>
<path d="M474.23 331.529C475.485 332.212 476.582 332.627 476.676 332.454C476.771 332.28 475.831 331.582 474.576 330.878C473.322 330.175 473.815 330.689 473.721 330.878C473.626 331.067 472.97 330.842 474.23 331.529Z" fill="#FFD037"/>
<path opacity="0.1" d="M490.227 381.168C508.204 381.168 522.777 378.932 522.777 376.174C522.777 373.416 508.204 371.181 490.227 371.181C472.25 371.181 457.676 373.416 457.676 376.174C457.676 378.932 472.25 381.168 490.227 381.168Z" fill="#00BFA6"/>
<path d="M506.98 344.531L506.822 345.802L506.602 347.598L506.513 348.349L506.292 350.145L506.198 350.896L505.982 352.686L503.489 373.113C503.268 374.935 500.291 376.358 496.695 376.358H483.753C480.157 376.358 477.186 374.935 476.96 373.113L474.466 352.686L474.246 350.896L474.156 350.145L473.936 348.349L473.841 347.598L473.626 345.802L473.469 344.531C473.348 343.481 474.954 342.63 476.991 342.63H503.462C505.494 342.63 507.106 343.497 506.98 344.531Z" fill="#65617D"/>
<path d="M506.823 345.802L506.607 347.598H473.847L473.626 345.802H506.823Z" fill="#9D9CB5"/>
<path d="M506.513 348.349L506.297 350.145H474.156L473.936 348.349H506.513Z" fill="#9D9CB5"/>
<path d="M506.203 350.896L505.983 352.691H474.466L474.251 350.896H506.203Z" fill="#9D9CB5"/>
</g>
<defs>
<linearGradient id="paint0_linear" x1="286.991" y1="263.564" x2="286.991" y2="8.45425e-06" gradientUnits="userSpaceOnUse">
<stop stop-color="#808080" stop-opacity="0.25"/>
<stop offset="0.54" stop-color="#808080" stop-opacity="0.12"/>
<stop offset="1" stop-color="#808080" stop-opacity="0.1"/>
</linearGradient>
<clipPath id="clip0">
<rect width="537" height="427" fill="white"/>
</clipPath>
</defs>
</svg>
