<svg width="196" height="48" viewBox="0 0 196 48" fill="none" xmlns="http://www.w3.org/2000/svg">
<path d="M15 17.2L13.48 39.4C13.4533 39.8 13.3067 40 13.04 40H10.84C9.34667 40 8.28 39.7067 7.64 39.12C7 38.5333 6.68 37.6933 6.68 36.6C6.68 36.2 6.69333 35.6 6.72 34.8C6.77333 34 6.84 33.0667 6.92 32C7 30.9067 7.08 29.7333 7.16 28.48C7.26667 27.2 7.37333 25.92 7.48 24.64C7.58667 23.3333 7.68 22.04 7.76 20.76C7.86667 19.48 7.96 18.2933 8.04 17.2H1.64C1.34667 17.2 1.2 17.0133 1.2 16.64L1.32 14.4C1.34667 14.0533 1.4 13.72 1.48 13.4C1.58667 13.0533 1.74667 12.7467 1.96 12.48C2.17333 12.2133 2.44 12 2.76 11.84C3.10667 11.68 3.52 11.6 4 11.6H21.88C22.04 11.6 22.1867 11.64 22.32 11.72C22.4533 11.8 22.52 11.9467 22.52 12.16L22.36 14.52C22.3067 15.32 22.08 15.9733 21.68 16.48C21.3067 16.96 20.52 17.2 19.32 17.2H15ZM30.0922 40.4C28.2522 40.4 26.7189 40.1467 25.4922 39.64C24.2922 39.1067 23.3322 38.3867 22.6122 37.48C21.8922 36.5733 21.3855 35.52 21.0922 34.32C20.7989 33.0933 20.6522 31.7867 20.6522 30.4C20.6522 28.8 20.8389 27.24 21.2122 25.72C21.6122 24.1733 22.2789 22.8 23.2122 21.6C24.1455 20.4 25.3722 19.44 26.8922 18.72C28.4389 17.9733 30.3589 17.6 32.6522 17.6C36.0122 17.6 38.4122 18.4267 39.8522 20.08C41.3189 21.7067 42.0522 24 42.0522 26.96C42.0522 27.7867 41.9855 28.7067 41.8522 29.72C41.7455 30.7067 41.5189 31.6933 41.1722 32.68C40.8522 33.6667 40.3989 34.6267 39.8122 35.56C39.2522 36.4933 38.5322 37.32 37.6522 38.04C36.7722 38.76 35.7055 39.3333 34.4522 39.76C33.2255 40.1867 31.7722 40.4 30.0922 40.4ZM31.9722 22.92C30.9589 22.92 30.1455 23.1867 29.5322 23.72C28.9455 24.2267 28.4922 24.8533 28.1722 25.6C27.8789 26.32 27.6789 27.0933 27.5722 27.92C27.4922 28.72 27.4522 29.4 27.4522 29.96C27.4522 31.72 27.7322 33.0133 28.2922 33.84C28.8522 34.6667 29.6522 35.08 30.6922 35.08C31.6255 35.08 32.3855 34.7867 32.9722 34.2C33.5855 33.6133 34.0522 32.9067 34.3722 32.08C34.7189 31.2533 34.9455 30.3867 35.0522 29.48C35.1855 28.5733 35.2522 27.8133 35.2522 27.2C35.2522 25.8667 34.9989 24.8267 34.4922 24.08C34.0122 23.3067 33.1722 22.92 31.9722 22.92ZM89.4903 40.4C87.917 40.4 86.6236 40.2933 85.6103 40.08C84.597 39.8933 83.7836 39.6133 83.1703 39.24C82.5836 38.84 82.1703 38.3467 81.9303 37.76C81.717 37.1733 81.6103 36.48 81.6103 35.68C81.6103 35.44 81.6236 35.1067 81.6503 34.68C81.677 34.2267 81.717 33.6 81.7703 32.8C81.8236 32 81.8903 30.9733 81.9703 29.72C82.077 28.44 82.2103 26.84 82.3703 24.92C82.557 22.5467 82.7036 20.6667 82.8103 19.28C82.917 17.8933 82.997 16.8267 83.0503 16.08C83.1036 15.3067 83.1303 14.7733 83.1303 14.48C83.157 14.16 83.1703 13.8933 83.1703 13.68C83.1703 13.2533 83.1703 12.9067 83.1703 12.64C83.197 12.3733 83.2236 12.1733 83.2503 12.04C83.3036 11.88 83.3703 11.7733 83.4503 11.72C83.557 11.64 83.7036 11.6 83.8903 11.6C85.4636 11.4933 86.797 11.4133 87.8903 11.36C89.0103 11.3067 89.9836 11.28 90.8103 11.28C92.837 11.28 94.5703 11.4533 96.0103 11.8C97.477 12.12 98.6636 12.5867 99.5703 13.2C100.477 13.8133 101.144 14.5733 101.57 15.48C101.997 16.3867 102.21 17.4133 102.21 18.56C102.21 19.2 102.144 19.8667 102.01 20.56C101.877 21.2267 101.65 21.8667 101.33 22.48C101.01 23.0933 100.57 23.64 100.01 24.12C99.477 24.5733 98.797 24.9067 97.9703 25.12C99.517 25.6 100.61 26.4 101.25 27.52C101.89 28.6133 102.21 29.92 102.21 31.44C102.21 32.6667 102.01 33.8267 101.61 34.92C101.21 35.9867 100.517 36.9333 99.5303 37.76C98.5436 38.56 97.237 39.2 95.6103 39.68C93.9836 40.16 91.9436 40.4 89.4903 40.4ZM91.7703 28C91.477 28 91.117 28.0267 90.6903 28.08C90.2636 28.1067 89.8236 28.16 89.3703 28.24L88.9303 34.76C89.8903 35.0533 90.757 35.2 91.5303 35.2C92.357 35.2 93.0236 35.08 93.5303 34.84C94.037 34.6 94.4236 34.3067 94.6903 33.96C94.9836 33.5867 95.1703 33.1867 95.2503 32.76C95.357 32.3067 95.4103 31.8933 95.4103 31.52C95.4103 30.5333 95.1303 29.7067 94.5703 29.04C94.037 28.3467 93.1036 28 91.7703 28ZM90.0903 17C90.037 17.6933 89.9836 18.5067 89.9303 19.44C89.9036 20.3733 89.8503 21.3867 89.7703 22.48C90.6236 22.6933 91.3836 22.8 92.0503 22.8C92.8503 22.8 93.4903 22.7067 93.9703 22.52C94.4503 22.3333 94.8236 22.0933 95.0903 21.8C95.3836 21.5067 95.5703 21.1867 95.6503 20.84C95.757 20.4933 95.8103 20.16 95.8103 19.84C95.8103 19.0133 95.5303 18.3067 94.9703 17.72C94.437 17.1067 93.5036 16.8 92.1703 16.8C91.877 16.8 91.5436 16.8267 91.1703 16.88C90.8236 16.9067 90.4636 16.9467 90.0903 17ZM175.992 36.76C175.992 36.8933 175.925 37.16 175.792 37.56C175.658 37.96 175.445 38.3733 175.152 38.8C174.858 39.2267 174.485 39.6 174.032 39.92C173.605 40.24 173.085 40.4 172.472 40.4C171.752 40.4 171.032 40.16 170.312 39.68C169.618 39.2 168.925 38.5467 168.232 37.72C167.538 36.8933 166.832 35.92 166.112 34.8C165.418 33.6533 164.712 32.4133 163.992 31.08C163.885 32.4933 163.778 33.88 163.672 35.24C163.565 36.6 163.458 37.92 163.352 39.2C163.325 39.52 163.258 39.7333 163.152 39.84C163.045 39.9467 162.818 40 162.472 40H161.032C160.205 40 159.525 39.92 158.992 39.76C158.458 39.5733 158.045 39.32 157.752 39C157.458 38.68 157.245 38.28 157.112 37.8C157.005 37.2933 156.952 36.72 156.952 36.08C156.952 35.76 156.965 35.4267 156.992 35.08C157.018 34.7333 157.058 34.24 157.112 33.6C157.165 32.96 157.232 32.12 157.312 31.08C157.418 30.04 157.538 28.6667 157.672 26.96C157.805 25.2533 157.952 23.16 158.112 20.68C158.298 18.1733 158.498 15.1333 158.712 11.56C158.738 10.9733 158.805 10.6267 158.912 10.52C158.992 10.44 159.205 10.4 159.552 10.4H161.112C161.938 10.4 162.618 10.4933 163.152 10.68C163.685 10.8667 164.112 11.12 164.432 11.44C164.752 11.76 164.965 12.1333 165.072 12.56C165.205 12.9867 165.272 13.4267 165.272 13.88C165.272 14.1467 165.245 14.6 165.192 15.24C165.165 15.8533 165.125 16.6133 165.072 17.52C165.018 18.4 164.938 19.4 164.832 20.52C164.752 21.64 164.672 22.8133 164.592 24.04L170.992 18.2C171.232 17.9867 171.445 17.84 171.632 17.76C171.845 17.68 172.005 17.64 172.112 17.64C172.405 17.64 172.725 17.8267 173.072 18.2C173.418 18.5733 173.738 19.0133 174.032 19.52C174.352 20 174.605 20.5067 174.792 21.04C175.005 21.5467 175.112 21.96 175.112 22.28C175.112 23.0533 174.485 23.8667 173.232 24.72C172.005 25.5733 170.138 26.5333 167.632 27.6C168.752 28.8533 169.818 30 170.832 31.04C171.845 32.08 172.725 33 173.472 33.8C174.245 34.6 174.858 35.2533 175.312 35.76C175.765 36.2667 175.992 36.6 175.992 36.76ZM187.874 17.6C190.141 17.6 191.807 18.0533 192.874 18.96C193.941 19.84 194.474 20.9733 194.474 22.36C194.474 23.5333 194.101 24.4267 193.354 25.04C192.634 25.6533 191.581 25.96 190.194 25.96C189.821 25.96 189.567 25.92 189.434 25.84C189.301 25.76 189.234 25.6133 189.234 25.4C189.234 25.16 189.207 24.8933 189.154 24.6C189.127 24.28 189.034 23.9867 188.874 23.72C188.741 23.4267 188.514 23.1867 188.194 23C187.901 22.8133 187.474 22.72 186.914 22.72C186.167 22.72 185.567 22.9067 185.114 23.28C184.661 23.6267 184.434 24.0667 184.434 24.6C184.434 25.16 184.661 25.6133 185.114 25.96C185.594 26.28 186.181 26.5867 186.874 26.88C187.594 27.1733 188.367 27.48 189.194 27.8C190.021 28.0933 190.781 28.4933 191.474 29C192.194 29.5067 192.781 30.1467 193.234 30.92C193.714 31.6667 193.954 32.64 193.954 33.84C193.954 35.76 193.274 37.3333 191.914 38.56C190.554 39.7867 188.514 40.4 185.794 40.4C185.047 40.4 184.181 40.3333 183.194 40.2C182.234 40.0933 181.314 39.92 180.434 39.68C179.554 39.4133 178.807 39.0667 178.194 38.64C177.607 38.2133 177.314 37.68 177.314 37.04C177.314 36.8 177.354 36.5067 177.434 36.16C177.541 35.8133 177.687 35.48 177.874 35.16C178.087 34.84 178.327 34.5733 178.594 34.36C178.887 34.12 179.234 34 179.634 34C179.954 34 180.247 34.08 180.514 34.24C180.781 34.4 181.087 34.5733 181.434 34.76C181.807 34.92 182.261 35.08 182.794 35.24C183.327 35.4 184.034 35.48 184.914 35.48C185.581 35.48 186.167 35.4 186.674 35.24C187.207 35.08 187.474 34.72 187.474 34.16C187.474 33.6533 187.261 33.2533 186.834 32.96C186.407 32.64 185.861 32.3467 185.194 32.08C184.554 31.8133 183.847 31.5333 183.074 31.24C182.327 30.92 181.621 30.5067 180.954 30C180.314 29.4933 179.781 28.8533 179.354 28.08C178.927 27.28 178.714 26.2533 178.714 25C178.714 23.64 178.981 22.4933 179.514 21.56C180.074 20.6 180.781 19.8267 181.634 19.24C182.514 18.6533 183.501 18.24 184.594 18C185.687 17.7333 186.781 17.6 187.874 17.6Z" fill="black"/>
<path d="M67.3184 37.4C67.3184 37.6133 67.1851 37.8933 66.9184 38.24C66.6784 38.56 66.3318 38.88 65.8784 39.2C65.4518 39.52 64.9451 39.8 64.3584 40.04C63.7984 40.28 63.1984 40.4 62.5584 40.4C61.5718 40.4 60.7051 40.0933 59.9584 39.48C59.2118 38.84 58.5318 37.9733 57.9184 36.88C57.3318 35.7867 56.7851 34.4933 56.2784 33C55.7718 31.48 55.2518 29.84 54.7184 28.08L53.1984 29.08L52.4384 39.4C52.4118 39.6133 52.3584 39.7733 52.2784 39.88C52.1984 39.96 52.0384 40 51.7984 40H49.5984C48.0784 40 46.9984 39.7067 46.3584 39.12C45.7451 38.5067 45.4384 37.6133 45.4384 36.44C45.4384 36.0667 45.4518 35.5067 45.4784 34.76C45.5318 33.9867 45.5984 33.0933 45.6784 32.08C45.7584 31.04 45.8384 29.9067 45.9184 28.68C46.0251 27.4533 46.1318 26.2 46.2384 24.92C46.4251 22.36 46.5718 20.3333 46.6784 18.84C46.8118 17.3467 46.9051 16.1733 46.9584 15.32C47.0118 14.44 47.0518 13.8 47.0784 13.4C47.1051 12.9733 47.1184 12.5733 47.1184 12.2C47.1184 11.8 47.3318 11.6 47.7584 11.6H49.9584C50.8118 11.6 51.4918 11.6933 51.9984 11.88C52.5318 12.04 52.9451 12.28 53.2384 12.6C53.5318 12.92 53.7318 13.32 53.8384 13.8C53.9451 14.2533 53.9984 14.7867 53.9984 15.4C53.9984 16.0133 53.9584 17.0133 53.8784 18.4C53.8251 19.76 53.7318 21.2933 53.5984 23C54.5051 21.88 55.5851 20.4933 56.8384 18.84C58.1184 17.1867 59.6651 15.1467 61.4784 12.72C61.5584 12.6133 61.6651 12.48 61.7984 12.32C61.9584 12.1333 62.1184 11.96 62.2784 11.8C62.4651 11.64 62.6518 11.5067 62.8384 11.4C63.0518 11.2667 63.2518 11.2 63.4384 11.2C63.7851 11.2 64.1851 11.3867 64.6384 11.76C65.0918 12.1067 65.5184 12.5467 65.9184 13.08C66.3184 13.5867 66.6518 14.12 66.9184 14.68C67.2118 15.2133 67.3584 15.6667 67.3584 16.04C67.3584 16.8133 66.6651 17.9733 65.2784 19.52C63.8918 21.04 61.9051 22.8 59.3184 24.8C59.7718 25.5733 60.2918 26.4133 60.8784 27.32C61.4651 28.2 62.0518 29.1067 62.6384 30.04C63.2251 30.9467 63.7984 31.84 64.3584 32.72C64.9184 33.5733 65.4118 34.3467 65.8384 35.04C66.2918 35.7067 66.6518 36.2533 66.9184 36.68C67.1851 37.1067 67.3184 37.3467 67.3184 37.4ZM74.0803 40C73.2536 40 72.5736 39.92 72.0403 39.76C71.5336 39.5733 71.1203 39.32 70.8003 39C70.507 38.68 70.2936 38.2933 70.1603 37.84C70.0536 37.36 70.0003 36.8133 70.0003 36.2C70.0003 35.8 70.0136 35.24 70.0403 34.52C70.0936 33.7733 70.1736 32.76 70.2803 31.48C70.387 30.1733 70.507 28.5333 70.6403 26.56C70.8003 24.56 70.987 22.0933 71.2003 19.16C71.227 18.5733 71.2936 18.2267 71.4003 18.12C71.4803 18.04 71.6936 18 72.0403 18H73.6003C74.427 18 75.0936 18.08 75.6003 18.24C76.1336 18.4 76.547 18.64 76.8403 18.96C77.1603 19.28 77.3736 19.6667 77.4803 20.12C77.6136 20.5733 77.6803 21.08 77.6803 21.64C77.6803 22.04 77.6536 22.64 77.6003 23.44C77.547 24.24 77.467 25.3333 77.3603 26.72C77.2803 28.08 77.1603 29.7867 77.0003 31.84C76.8403 33.8667 76.6403 36.32 76.4003 39.2C76.3736 39.52 76.307 39.7333 76.2003 39.84C76.0936 39.9467 75.867 40 75.5203 40H74.0803ZM71.2403 13.28C71.2403 12.2133 71.627 11.3733 72.4003 10.76C73.1736 10.1467 74.2136 9.84 75.5203 9.84C76.667 9.84 77.4936 10.08 78.0003 10.56C78.5336 11.0133 78.8003 11.6267 78.8003 12.4C78.8003 13.3867 78.427 14.2133 77.6803 14.88C76.9603 15.52 75.8936 15.84 74.4803 15.84C72.3203 15.84 71.2403 14.9867 71.2403 13.28Z" fill="#00AC95"/>
<path d="M109.586 34.7266C109.586 32.1419 111.689 30.0391 114.273 30.0391H147.828C148.037 30.0391 148.23 30.1502 148.335 30.3309C148.44 30.5115 148.441 30.7343 148.337 30.9156L147.453 32.463C147.059 33.1513 146.852 33.9339 146.852 34.7266C146.852 35.5192 147.06 36.3019 147.453 36.9902L148.337 38.5375C148.441 38.7188 148.44 38.9416 148.335 39.1223C148.23 39.3029 148.037 39.4141 147.828 39.4141H114.273C111.689 39.4141 109.586 37.3112 109.586 34.7266Z" fill="#F2FAFF"/>
<path d="M147.453 36.9902C147.059 36.3019 146.852 35.5192 146.852 34.7266C146.852 33.9339 147.059 33.1513 147.453 32.463L148.337 30.9156C148.44 30.7343 148.44 30.5115 148.335 30.3309C148.23 30.1502 148.037 30.0391 147.828 30.0391H129V39.4141H147.828C148.037 39.4141 148.23 39.3029 148.335 39.1223C148.44 38.9416 148.441 38.7188 148.337 38.5375L147.453 36.9902Z" fill="#C8EAFA"/>
<path d="M114.273 40H147.828C148.475 40 149 39.4753 149 38.8281C149 38.1809 148.475 37.6562 147.828 37.6562H114.273C112.658 37.6562 111.344 36.342 111.344 34.7266C111.344 33.1111 112.658 31.7969 114.273 31.7969H147.828C148.475 31.7969 149 31.2722 149 30.625C149 29.9778 148.475 29.4531 147.828 29.4531H114.273C111.366 29.4531 109 31.8187 109 34.7266C109 37.6344 111.366 40 114.273 40Z" fill="#4CD2C1"/>
<path d="M147.828 37.6562H129V40H147.828C148.475 40 149 39.4753 149 38.8281C149 38.1809 148.475 37.6562 147.828 37.6562Z" fill="#79ABFC"/>
<path d="M147.828 31.7969C148.475 31.7969 149 31.2722 149 30.625C149 29.9778 148.475 29.4531 147.828 29.4531H129V31.7969H147.828Z" fill="#79ABFC"/>
<path d="M117.984 35.8984H140.016C140.663 35.8984 141.188 35.3737 141.188 34.7266C141.188 34.0794 140.663 33.5547 140.016 33.5547H117.984C117.337 33.5547 116.812 34.0794 116.812 34.7266C116.812 35.3737 117.337 35.8984 117.984 35.8984Z" fill="#C8EAFA"/>
<path d="M139.938 15.7812H137.633C136.986 15.7812 136.461 15.2566 136.461 14.6094C136.461 13.9622 136.986 13.4375 137.633 13.4375H139.938C142.738 13.4375 145.016 11.1595 145.016 8.35938V6.79688C145.016 5.71992 144.139 4.84375 143.062 4.84375H138.375C137.728 4.84375 137.203 4.31906 137.203 3.67188C137.203 3.02469 137.728 2.5 138.375 2.5H143.062C145.432 2.5 147.359 4.42758 147.359 6.79688V8.35938C147.359 12.4518 144.03 15.7812 139.938 15.7812Z" fill="#AED6EA"/>
<path d="M139.547 1.17188C139.547 0.524687 139.022 0 138.375 0H119.625C118.978 0 118.453 0.524687 118.453 1.17188V5.85938C118.453 6.50656 118.978 7.03125 119.625 7.03125H138.375C139.022 7.03125 139.547 6.50656 139.547 5.85938V1.17188Z" fill="#F2FAFF"/>
<path d="M138.375 0H129V7.03125H138.375C139.022 7.03125 139.547 6.50656 139.547 5.85938V1.17188C139.547 0.524687 139.022 0 138.375 0Z" fill="#C8EAFA"/>
<path d="M118.453 5.85938V10.6545C118.453 14.9591 120.775 18.9599 124.512 21.0956C124.689 21.1967 124.89 21.25 125.094 21.25H132.906C133.11 21.25 133.311 21.1967 133.488 21.0955C137.225 18.9599 139.547 14.9591 139.547 10.6545V5.85938H118.453Z" fill="#4CD2C1"/>
<path d="M129 5.85938V21.25H132.906C133.11 21.25 133.311 21.1967 133.488 21.0955C137.225 18.9599 139.547 14.9591 139.547 10.6545V5.85938H129Z" fill="#00AC95"/>
<path d="M143.727 28.8672H110.172C109.963 28.8672 109.77 28.756 109.665 28.5754C109.56 28.3948 109.559 28.172 109.663 27.9906L110.547 26.4433C110.941 25.755 111.148 24.9723 111.148 24.1797C111.148 23.387 110.94 22.6044 110.547 21.9161L109.663 20.3688C109.559 20.1875 109.56 19.9647 109.665 19.7841C109.77 19.6034 109.963 19.4922 110.172 19.4922H143.727C146.311 19.4922 148.414 21.595 148.414 24.1797C148.414 26.7644 146.311 28.8672 143.727 28.8672Z" fill="#F2FAFF"/>
<path d="M143.727 19.4922H129V28.8672H143.727C146.311 28.8672 148.414 26.7644 148.414 24.1797C148.414 21.595 146.311 19.4922 143.727 19.4922Z" fill="#C8EAFA"/>
<path d="M143.727 29.4531H110.172C109.525 29.4531 109 28.9284 109 28.2812C109 27.6341 109.525 27.1094 110.172 27.1094H143.727C145.342 27.1094 146.656 25.7952 146.656 24.1797C146.656 22.5642 145.342 21.25 143.727 21.25H110.172C109.525 21.25 109 20.7253 109 20.0781C109 19.4309 109.525 18.9062 110.172 18.9062H143.727C146.634 18.9062 149 21.2719 149 24.1797C149 27.0875 146.634 29.4531 143.727 29.4531Z" fill="#FFE67A"/>
<path d="M143.727 18.9062H129V21.25H143.727C145.342 21.25 146.656 22.5642 146.656 24.1797C146.656 25.7952 145.342 27.1094 143.727 27.1094H129V29.4531H143.727C146.634 29.4531 149 27.0875 149 24.1797C149 21.2719 146.634 18.9062 143.727 18.9062Z" fill="#FFC336"/>
<path d="M140.016 25.3516H117.984C117.337 25.3516 116.812 24.8269 116.812 24.1797C116.812 23.5325 117.337 23.0078 117.984 23.0078H140.016C140.663 23.0078 141.188 23.5325 141.188 24.1797C141.188 24.8269 140.663 25.3516 140.016 25.3516Z" fill="#C8EAFA"/>
<path d="M140.016 33.5547H129V35.8984H140.016C140.663 35.8984 141.188 35.3737 141.188 34.7266C141.188 34.0794 140.663 33.5547 140.016 33.5547Z" fill="#AED6EA"/>
<path d="M141.188 24.1797C141.188 23.5325 140.663 23.0078 140.016 23.0078H129V25.3516H140.016C140.663 25.3516 141.188 24.8269 141.188 24.1797Z" fill="#AED6EA"/>
</svg>
