<svg width="70" height="70" viewBox="0 0 70 70" fill="none" xmlns="http://www.w3.org/2000/svg">
<path d="M25.8475 10.0847H44.1526V36.5254H25.8475V10.0847Z" fill="#F6BF9B"/>
<path d="M28.8983 31.4407H41.1017V33.4746H28.8983V31.4407Z" fill="#394D5C"/>
<path d="M28.8983 21.2712H30.9322V23.3051H28.8983V21.2712Z" fill="#394D5C"/>
<path d="M39.0678 21.2712H41.1017V23.3051H39.0678V21.2712Z" fill="#394D5C"/>
<path d="M25.8475 28.3898C23.601 28.3898 21.7797 26.5685 21.7797 24.322C21.7797 22.0756 23.601 20.2542 25.8475 20.2542V28.3898Z" fill="#EFA47B"/>
<path d="M44.1525 20.2542C46.399 20.2542 48.2203 22.0756 48.2203 24.322C48.2203 26.5685 46.399 28.3898 44.1525 28.3898V20.2542Z" fill="#EFA47B"/>
<path d="M53.3051 40.5932H16.6949C15.0101 40.5932 13.644 41.9592 13.644 43.6441V65H56.3559V43.6441C56.3559 41.9592 54.9899 40.5932 53.3051 40.5932Z" fill="#394D5C"/>
<path d="M33.983 25.339H36.0169V29.4068H33.983V25.339Z" fill="#394D5C"/>
<path d="M44.1525 40.5932H23.8135V65H27.8813V43.3054L35 52.7966L42.1186 43.3054V65H46.1864V40.5932H44.1525Z" fill="#CFDFE8"/>
<path d="M49.2373 17.2034H53.3051L52.2881 11.1017V5H18.7288C18.1672 5 17.7119 5.45534 17.7119 6.01695C17.7119 6.57856 18.1672 7.0339 18.7288 7.0339H25.8474V16.1864H44.1525V7.0339H50.2542V11.1017L49.2373 17.2034Z" fill="#394D5C"/>
<path d="M33.983 40.5932H36.0169V52.7966H33.983V40.5932Z" fill="#394D5C"/>
</svg>
