<svg width="40" height="40" viewBox="0 0 40 40" fill="none" xmlns="http://www.w3.org/2000/svg">
<g clip-path="url(#clip0)">
<path d="M32.1734 39.1302C34.5746 39.1302 36.5211 37.1836 36.5211 34.7824C36.5211 32.3812 34.5746 30.4347 32.1734 30.4347C29.7722 30.4347 27.8257 32.3812 27.8257 34.7824C27.8257 37.1836 29.7722 39.1302 32.1734 39.1302Z" fill="#455A64"/>
<path d="M14.7823 39.1302C17.1835 39.1302 19.13 37.1836 19.13 34.7824C19.13 32.3812 17.1835 30.4347 14.7823 30.4347C12.3811 30.4347 10.4346 32.3812 10.4346 34.7824C10.4346 37.1836 12.3811 39.1302 14.7823 39.1302Z" fill="#455A64"/>
<path d="M39.782 6.38107C39.6168 6.19406 39.3792 6.08703 39.1298 6.08719H7.82592C7.34568 6.08711 6.95626 6.47629 6.95618 6.95652C6.95618 7.01497 6.96205 7.07334 6.97378 7.13065L10.452 24.5217C10.5347 24.9266 10.8909 25.2174 11.3042 25.2173C11.3424 25.2198 11.3807 25.2198 11.4189 25.2173L37.5055 21.7391C37.8974 21.6867 38.2046 21.3766 38.2533 20.9843L39.9924 7.07139C40.0256 6.82169 39.9488 6.56987 39.782 6.38107Z" fill="#00BFA6"/>
<path d="M14.7824 21.7392C14.3573 21.739 13.9947 21.4315 13.925 21.0122L12.186 10.5776C12.1215 10.1017 12.455 9.66367 12.9309 9.59919C13.3866 9.53739 13.8116 9.84122 13.9007 10.2924L15.6398 20.7271C15.7183 21.2005 15.3984 21.6481 14.925 21.7271C14.8779 21.7352 14.8302 21.7392 14.7824 21.7392Z" fill="#FAFAFA"/>
<path d="M19.1301 20.8696C18.6788 20.8714 18.3011 20.5278 18.2605 20.0783L17.391 10.5132C17.346 10.0351 17.6971 9.61101 18.1753 9.56601C18.1776 9.56577 18.1799 9.56561 18.1823 9.56536C18.6606 9.52207 19.0833 9.87481 19.1266 10.3531V10.3532L19.9962 19.9182C20.0394 20.3965 19.6868 20.8193 19.2085 20.8626H19.2084L19.1301 20.8696Z" fill="#FAFAFA"/>
<path d="M23.478 20C22.9977 20 22.6084 19.6107 22.6084 19.1304V10.4349C22.6084 9.95471 22.9977 9.56537 23.478 9.56537C23.9582 9.56537 24.3476 9.95471 24.3476 10.4349V19.1305C24.3476 19.6107 23.9582 20 23.478 20Z" fill="#FAFAFA"/>
<path d="M27.8257 19.1305H27.7282C27.2507 19.0799 26.9046 18.6518 26.9551 18.1742C26.9554 18.1712 26.9557 18.1682 26.9561 18.1653L27.8257 10.3393C27.8821 9.86104 28.3118 9.51653 28.7909 9.56545C29.2682 9.61827 29.6123 10.048 29.5596 10.5254V10.5254L28.69 18.3514C28.6437 18.794 28.2708 19.1302 27.8257 19.1305Z" fill="#FAFAFA"/>
<path d="M32.1734 18.2609C31.6932 18.2608 31.304 17.8713 31.3041 17.3911C31.3041 17.3203 31.3128 17.2497 31.3299 17.1809L33.069 10.2245C33.1744 9.75604 33.6397 9.46167 34.1082 9.56708C34.5767 9.67248 34.8711 10.1378 34.7657 10.6063C34.7628 10.6194 34.7595 10.6325 34.7559 10.6454L33.0168 17.6018C32.9203 17.989 32.5725 18.2608 32.1734 18.2609Z" fill="#FAFAFA"/>
<path d="M35.6516 28.6956H15.5806C12.6819 28.6889 10.1876 26.6445 9.612 23.8034L5.37383 2.609H0.869579C0.389342 2.609 0 2.21966 0 1.73942C0 1.25918 0.389342 0.869843 0.869579 0.869843H6.08689C6.5002 0.869761 6.85636 1.16054 6.93903 1.56546L11.3181 23.4608C11.7285 25.4903 13.51 26.9513 15.5806 26.9564H35.6516C36.1318 26.9564 36.5212 27.3457 36.5212 27.826C36.5212 28.3062 36.1318 28.6956 35.6516 28.6956Z" fill="#455A64"/>
</g>
<defs>
<clipPath id="clip0">
<rect width="40" height="40" fill="white"/>
</clipPath>
</defs>
</svg>
