<svg width="70" height="70" viewBox="0 0 70 70" fill="none" xmlns="http://www.w3.org/2000/svg">
<path d="M11.2069 5H46.3793C47.5219 5 48.4483 5.92639 48.4483 7.06897V62.931C48.4483 64.0736 47.5219 65 46.3793 65H11.2069C10.0643 65 9.13794 64.0736 9.13794 62.931V7.06897C9.13794 5.92639 10.0643 5 11.2069 5Z" fill="#546977"/>
<path d="M15.3448 11.2069H42.2414C43.384 11.2069 44.3104 12.1333 44.3104 13.2759V50.5172C44.3104 51.6598 43.384 52.5862 42.2414 52.5862H15.3448C14.2023 52.5862 13.2759 51.6598 13.2759 50.5172V13.2759C13.2759 12.1333 14.2023 11.2069 15.3448 11.2069Z" fill="#CFDFE8"/>
<path d="M24.6552 56.7241H32.931V60.8621H24.6552V56.7241Z" fill="#CFDFE8"/>
<path d="M54.6552 23.6207H60.862V65H54.6552V23.6207Z" fill="#546977"/>
<path d="M54.6552 23.6207L57.7586 14.3103L60.862 23.6207H54.6552Z" fill="#FDBD40"/>
<path d="M54.6552 52.5862H60.862V65H54.6552V52.5862Z" fill="#CFDFE8"/>
<path d="M28.7931 46.3793H30.8621V48.4483H28.7931V46.3793Z" fill="#394D5C"/>
<path d="M18.4482 46.3793V41.2069H16.3793V48.4483H26.7241V46.3793H18.4482Z" fill="#394D5C"/>
</svg>
