<svg width="70" height="70" viewBox="0 0 70 70" fill="none" xmlns="http://www.w3.org/2000/svg">
<path d="M33.9861 18.2203V54.7287C33.9593 57.0029 35.7796 58.8685 38.0539 58.8983H58.3928C60.6666 58.8685 62.487 57.0029 62.4606 54.7287V23.4352L64.4945 18.2203H33.9861Z" fill="#CFDFE8"/>
<path d="M33.986 30.4237H62.4606V54.8305C62.4606 57.0769 60.6392 58.8983 58.3928 58.8983H38.0538C35.8069 58.8983 33.986 57.0769 33.986 54.8305V30.4237Z" fill="#FDBD40"/>
<path d="M52.2911 35.5085H62.4606V37.5424H52.2911V35.5085Z" fill="#E97424"/>
<path d="M52.2911 47.7119H62.4606V49.7458H52.2911V47.7119Z" fill="#E97424"/>
<path d="M56.3589 41.6102H62.4606V43.6441H56.3589V41.6102Z" fill="#E97424"/>
<path d="M41.1047 5H43.1386V7.0339H41.1047V5Z" fill="#E97424"/>
<path d="M41.1047 9.06779H43.1386V11.1017H41.1047V9.06779Z" fill="#E97424"/>
<path d="M39.0708 7.03391H41.1047V9.0678H39.0708V7.03391Z" fill="#E97424"/>
<path d="M43.1386 7.03391H45.1725V9.0678H43.1386V7.03391Z" fill="#E97424"/>
<path d="M55.342 10.0847H57.3759V12.1186H55.342V10.0847Z" fill="#E97424"/>
<path d="M55.342 14.1525H57.3759V16.1864H55.342V14.1525Z" fill="#E97424"/>
<path d="M53.3081 12.1186H55.342V14.1525H53.3081V12.1186Z" fill="#E97424"/>
<path d="M57.3759 12.1186H59.4098V14.1525H57.3759V12.1186Z" fill="#E97424"/>
<path d="M42.1216 21.2712H37.0369V25.339H39.0708V23.3051H42.1216V21.2712Z" fill="white"/>
<path d="M34.1082 65H11.491C7.74846 65 4.92156 62.0102 5.61327 58.7762L15.681 32.4576V10.0847H29.9182V32.4576L39.9859 58.7762C40.6776 62.0102 37.8502 65 34.1082 65Z" fill="#CFDFE8"/>
<path d="M34.1082 65H11.491C7.74846 65 4.92156 62.0102 5.61327 58.7762L15.681 32.4576H29.9182L39.9859 58.7762C40.6776 62.0102 37.8502 65 34.1082 65Z" fill="#238892"/>
<path d="M24.8335 52.7966H26.8674V54.8305H24.8335V52.7966Z" fill="white"/>
<path d="M24.8335 56.8644H26.8674V58.8983H24.8335V56.8644Z" fill="white"/>
<path d="M22.7996 54.8305H24.8335V56.8644H22.7996V54.8305Z" fill="white"/>
<path d="M26.8674 54.8305H28.9013V56.8644H26.8674V54.8305Z" fill="white"/>
<path d="M16.6979 47.7119H18.7318V49.7458H16.6979V47.7119Z" fill="white"/>
<path d="M16.6979 51.7797H18.7318V53.8136H16.6979V51.7797Z" fill="white"/>
<path d="M14.664 49.7458H16.6979V51.7797H14.664V49.7458Z" fill="white"/>
<path d="M18.7318 49.7458H20.7657V51.7797H18.7318V49.7458Z" fill="white"/>
<path d="M12.6301 6.01695H32.9691V10.0847H12.6301V6.01695Z" fill="#238892"/>
<path d="M23.8166 13.1356H18.7318V17.2034H20.7657V15.1695H23.8166V13.1356Z" fill="white"/>
</svg>
