<svg width="70" height="70" viewBox="0 0 70 70" fill="none" xmlns="http://www.w3.org/2000/svg">
<path d="M23.6207 5H46.3793V36.0345H23.6207V5Z" fill="#F6BF9B"/>
<path d="M23.6207 5H46.3793V13.2759H23.6207V5Z" fill="#394D5C"/>
<path d="M28.7931 18.4483H30.8621V20.5172H28.7931V18.4483Z" fill="#394D5C"/>
<path d="M39.1379 18.4483H41.2069V20.5172H39.1379V18.4483Z" fill="#394D5C"/>
<path d="M23.6207 27.7586C21.3355 27.7586 19.4828 25.4426 19.4828 22.5862C19.4828 19.7298 21.3355 17.4138 23.6207 17.4138V27.7586Z" fill="#EFA47B"/>
<path d="M46.3793 17.4138C48.6645 17.4138 50.5172 19.7298 50.5172 22.5862C50.5172 25.4426 48.6645 27.7586 46.3793 27.7586V17.4138Z" fill="#EFA47B"/>
<path d="M33.9655 22.9049H36.0345V27.6788H33.9655V22.9049Z" fill="#394D5C"/>
<path d="M31.8966 65L9.13794 62.7936V31.8965L31.8966 33.9655V65Z" fill="#238892"/>
<path d="M60.8621 62.7936L38.1035 65V33.9655L60.8621 31.8965V62.7936Z" fill="#238892"/>
<path d="M31.8965 33.9655H38.1034V65H31.8965V33.9655Z" fill="#CFDFE8"/>
<path d="M5 42.2414H15.3448V52.5862H5V42.2414Z" fill="#F6BF9B"/>
<path d="M54.6552 42.2414H65V52.5862H54.6552V42.2414Z" fill="#F6BF9B"/>
</svg>
